<?xml version="1.0" encoding="UTF-8" standalone="no"?>
<svg
   viewBox="0 0 371.96729 300.72549"
   version="1.1"
   id="svg195"
   sodipodi:docname="building.svg"
   width="371.96729"
   height="300.72549"
   inkscape:version="1.1 (c68e22c387, 2021-05-23)"
   xmlns:inkscape="http://www.inkscape.org/namespaces/inkscape"
   xmlns:sodipodi="http://sodipodi.sourceforge.net/DTD/sodipodi-0.dtd"
   xmlns="http://www.w3.org/2000/svg"
   xmlns:svg="http://www.w3.org/2000/svg">
  <sodipodi:namedview
     id="namedview197"
     pagecolor="#ffffff"
     bordercolor="#666666"
     borderopacity="1.0"
     inkscape:pageshadow="2"
     inkscape:pageopacity="0.0"
     inkscape:pagecheckerboard="0"
     showgrid="false"
     inkscape:zoom="1.0288404"
     inkscape:cx="184.67394"
     inkscape:cy="56.860133"
     inkscape:window-width="2560"
     inkscape:window-height="1361"
     inkscape:window-x="-9"
     inkscape:window-y="-9"
     inkscape:window-maximized="1"
     inkscape:current-layer="svg195" />
  <defs
     id="defs27">
    <linearGradient
       id="e"
       x1="261.5"
       x2="100.6"
       gradientUnits="userSpaceOnUse">
      <stop
         stop-color="#4e9a06"
         offset="0"
         id="stop2" />
      <stop
         stop-color="#8ae234"
         offset="1"
         id="stop4" />
    </linearGradient>
    <linearGradient
       id="d"
       x1="156.87"
       x2="152.52"
       y1="1925"
       y2="2068.8"
       gradientUnits="userSpaceOnUse">
      <stop
         stop-color="#75507b"
         offset="0"
         id="stop7" />
      <stop
         stop-color="#ad7fa8"
         offset="1"
         id="stop9" />
    </linearGradient>
    <linearGradient
       id="c"
       x1="103.49"
       x2="135.09"
       y1="1819.3"
       y2="2009.9"
       gradientUnits="userSpaceOnUse">
      <stop
         stop-color="#c00"
         offset="0"
         id="stop12" />
      <stop
         stop-color="#ef2929"
         offset="1"
         id="stop14" />
    </linearGradient>
    <linearGradient
       id="b"
       x1="27.235001"
       x2="25.056"
       y1="1950"
       y2="2073.1001"
       gradientUnits="userSpaceOnUse">
      <stop
         stop-color="#204a87"
         offset="0"
         id="stop17" />
      <stop
         stop-color="#729fcf"
         offset="1"
         id="stop19" />
    </linearGradient>
    <linearGradient
       id="a"
       x1="214.61"
       x2="212.42999"
       y1="1886.8"
       y2="1996.9"
       gradientUnits="userSpaceOnUse">
      <stop
         stop-color="#555753"
         offset="0"
         id="stop22" />
      <stop
         stop-color="#888a85"
         offset="1"
         id="stop24" />
    </linearGradient>
  </defs>
  <g
     transform="translate(45.621405,-1804.3)"
     id="g193">
    <path
       d="m 199.82,1877.2 c -3.8321,0 -6.9292,4.1208 -6.9292,9.2679 v 212.22 h 82.918 v -212.22 c 0,-5.1471 -3.0971,-9.2679 -6.9292,-9.2679 h -69.059 z"
       fill="url(#a)"
       stroke="#214321"
       stroke-linecap="square"
       stroke-linejoin="bevel"
       stroke-opacity="0.92308"
       stroke-width="0.8"
       id="path29"
       style="fill:url(#a)" />
    <path
       d="m 73.658,1804.7 c -4.207,0 -7.607,4.3197 -7.607,9.7153 v 285.43 h 84.892 v -285.43 c 0,-5.3956 -3.4,-9.7153 -7.607,-9.7153 z"
       fill="url(#c)"
       stroke="#4b201d"
       stroke-linecap="square"
       stroke-linejoin="bevel"
       stroke-opacity="0.92308"
       stroke-width="0.8"
       id="path31"
       style="fill:url(#c)" />
    <path
       d="m 73.34,2012.8 h 18.64 v 6.2206 H 73.34 Z"
       fill="#ffffff"
       id="path33" />
    <path
       d="m 119.09,2012.5 h 18.64 v 6.2206 h -18.64 z"
       fill="#ffffff"
       id="path35" />
    <path
       d="m 73.34,2022.7 h 18.64 v 6.2206 H 73.34 Z"
       fill="#ffffff"
       id="path37" />
    <path
       d="m 119.09,2022.4 h 18.64 v 6.2206 h -18.64 z"
       fill="#ffffff"
       id="path39" />
    <path
       d="m 73.34,2032.7 h 18.64 v 6.2206 H 73.34 Z"
       fill="#ffffff"
       id="path41" />
    <path
       d="m 119.09,2032.3 h 18.64 v 6.2206 h -18.64 z"
       fill="#ffffff"
       id="path43" />
    <path
       d="m 91.996,2055.1 h 25.007 v 45.739 H 91.996 Z"
       fill="#ffffff"
       id="path45" />
    <path
       d="m 73.34,1832.2 h 18.64 v 6.2206 H 73.34 Z"
       fill="#ffffff"
       id="path47" />
    <path
       d="m 119.09,1831.9 h 18.64 v 6.2206 h -18.64 z"
       fill="#ffffff"
       id="path49" />
    <path
       d="m 230.23,1918.2 h 34.345 v 8.0584 H 230.23 Z"
       fill="#ffffff"
       id="path51" />
    <path
       d="m 230.23,1928.7 h 34.345 v 8.0584 H 230.23 Z"
       fill="#ffffff"
       id="path53" />
    <path
       d="m 230.23,1940 h 34.345 v 8.0584 H 230.23 Z"
       fill="#ffffff"
       id="path55" />
    <path
       d="m 215.71,2061.3 h 44.441 v 24.385 H 215.71 Z"
       fill="#ffffff"
       id="path57" />
    <path
       d="m 230.23,1907.3 h 34.345 v 8.0584 H 230.23 Z"
       fill="#ffffff"
       id="path59" />
    <path
       d="m 230.23,1895.5 h 34.345 v 8.0584 H 230.23 Z"
       fill="#ffffff"
       id="path61" />
    <path
       d="m 230.23,1974.9 h 34.345 v 8.0584 H 230.23 Z"
       fill="#ffffff"
       id="path63" />
    <path
       d="m 230.23,1985.4 h 34.345 v 8.0584 H 230.23 Z"
       fill="#ffffff"
       id="path65" />
    <path
       d="m 230.23,1996.7 h 34.345 v 8.0584 H 230.23 Z"
       fill="#ffffff"
       id="path67" />
    <path
       d="m 230.23,1964 h 34.345 v 8.0584 H 230.23 Z"
       fill="#ffffff"
       id="path69" />
    <path
       d="m 230.23,1952.2 h 34.345 v 8.0584 H 230.23 Z"
       fill="#ffffff"
       id="path71" />
    <path
       d="m 230.23,1974.9 h 34.345 v 8.0584 H 230.23 Z"
       fill="#ffffff"
       id="path73" />
    <path
       d="m 230.23,1985.4 h 34.345 v 8.0584 H 230.23 Z"
       fill="#ffffff"
       id="path75" />
    <path
       d="m 230.23,1996.7 h 34.345 v 8.0584 H 230.23 Z"
       fill="#ffffff"
       id="path77" />
    <path
       d="m 230.23,1964 h 34.345 v 8.0584 H 230.23 Z"
       fill="#ffffff"
       id="path79" />
    <path
       d="m 230.23,1952.2 h 34.345 v 8.0584 H 230.23 Z"
       fill="#ffffff"
       id="path81" />
    <path
       d="m 230.23,2007.7 h 34.345 v 8.0584 H 230.23 Z"
       fill="#ffffff"
       id="path83" />
    <path
       d="m 230.23,2019 h 34.345 v 8.0584 H 230.23 Z"
       fill="#ffffff"
       id="path85" />
    <path
       d="m 230.23,2007.7 h 34.345 v 8.0584 H 230.23 Z"
       fill="#ffffff"
       id="path87" />
    <path
       d="m 230.23,2019 h 34.345 v 8.0584 H 230.23 Z"
       fill="#ffffff"
       id="path89" />
    <path
       d="m 73.34,1842.1 h 18.64 v 6.2206 H 73.34 Z"
       fill="#ffffff"
       id="path91" />
    <path
       d="m 119.09,1841.8 h 18.64 v 6.2206 h -18.64 z"
       fill="#ffffff"
       id="path93" />
    <path
       d="m 73.34,1852.1 h 18.64 v 6.2206 H 73.34 Z"
       fill="#ffffff"
       id="path95" />
    <path
       d="m 119.09,1851.8 h 18.64 v 6.2206 h -18.64 z"
       fill="#ffffff"
       id="path97" />
    <path
       d="m 73.34,1862 h 18.64 v 6.2206 H 73.34 Z"
       fill="#ffffff"
       id="path99" />
    <path
       d="m 119.09,1861.7 h 18.64 v 6.2206 h -18.64 z"
       fill="#ffffff"
       id="path101" />
    <path
       d="m 73.34,1871.9 h 18.64 v 6.2206 H 73.34 Z"
       fill="#ffffff"
       id="path103" />
    <path
       d="m 119.09,1871.6 h 18.64 v 6.2206 h -18.64 z"
       fill="#ffffff"
       id="path105" />
    <path
       d="m 73.34,1881.9 h 18.64 v 6.2206 H 73.34 Z"
       fill="#ffffff"
       id="path107" />
    <path
       d="m 119.09,1881.6 h 18.64 v 6.2206 h -18.64 z"
       fill="#ffffff"
       id="path109" />
    <path
       d="m 73.34,1891.8 h 18.64 v 6.2206 H 73.34 Z"
       fill="#ffffff"
       id="path111" />
    <path
       d="m 119.09,1891.5 h 18.64 v 6.2206 h -18.64 z"
       fill="#ffffff"
       id="path113" />
    <path
       d="m 73.34,1901.7 h 18.64 v 6.2206 H 73.34 Z"
       fill="#ffffff"
       id="path115" />
    <path
       d="m 119.09,1901.4 h 18.64 v 6.2206 h -18.64 z"
       fill="#ffffff"
       id="path117" />
    <path
       d="m 73.34,1911.7 h 18.64 v 6.2206 H 73.34 Z"
       fill="#ffffff"
       id="path119" />
    <path
       d="m 119.09,1911.4 h 18.64 v 6.2206 h -18.64 z"
       fill="#ffffff"
       id="path121" />
    <path
       d="m 73.34,1923.5 h 18.64 v 6.2206 H 73.34 Z"
       fill="#ffffff"
       id="path123" />
    <path
       d="m 119.09,1923.2 h 18.64 v 6.2206 h -18.64 z"
       fill="#ffffff"
       id="path125" />
    <path
       d="m 73.34,1933.4 h 18.64 v 6.2206 H 73.34 Z"
       fill="#ffffff"
       id="path127" />
    <path
       d="m 119.09,1933.1 h 18.64 v 6.2206 h -18.64 z"
       fill="#ffffff"
       id="path129" />
    <path
       d="m 73.34,1943.3 h 18.64 v 6.2206 H 73.34 Z"
       fill="#ffffff"
       id="path131" />
    <path
       d="m 119.09,1943 h 18.64 v 6.2206 h -18.64 z"
       fill="#ffffff"
       id="path133" />
    <path
       d="m 73.34,1953.3 h 18.64 v 6.2206 H 73.34 Z"
       fill="#ffffff"
       id="path135" />
    <path
       d="m 119.09,1953 h 18.64 v 6.2206 h -18.64 z"
       fill="#ffffff"
       id="path137" />
    <path
       d="m 73.34,1963.2 h 18.64 v 6.2206 H 73.34 Z"
       fill="#ffffff"
       id="path139" />
    <path
       d="m 119.09,1962.9 h 18.64 v 6.2206 h -18.64 z"
       fill="#ffffff"
       id="path141" />
    <path
       d="m 73.34,1973.1 h 18.64 v 6.2206 H 73.34 Z"
       fill="#ffffff"
       id="path143" />
    <path
       d="m 119.09,1972.8 h 18.64 v 6.2206 h -18.64 z"
       fill="#ffffff"
       id="path145" />
    <path
       d="m 73.34,1983.1 h 18.64 v 6.2206 H 73.34 Z"
       fill="#ffffff"
       id="path147" />
    <path
       d="m 119.09,1982.8 h 18.64 v 6.2206 h -18.64 z"
       fill="#ffffff"
       id="path149" />
    <path
       d="m 73.34,1993 h 18.64 v 6.2206 H 73.34 Z"
       fill="#ffffff"
       id="path151" />
    <path
       d="m 119.09,1992.7 h 18.64 v 6.2206 h -18.64 z"
       fill="#ffffff"
       id="path153" />
    <path
       d="m 73.34,2002.9 h 18.64 v 6.2206 H 73.34 Z"
       fill="#ffffff"
       id="path155" />
    <path
       d="m 119.09,2002.6 h 18.64 v 6.2206 h -18.64 z"
       fill="#ffffff"
       id="path157" />
    <path
       d="m 20.089,1942.3 c -4.0602,0 -7.3417,4.1207 -7.3417,9.2679 v 151.61 c 0,0.1879 0.0223,0.3624 0.0308,0.5475 h 75.946 c 0.009,-0.1851 0.0308,-0.3596 0.0308,-0.5475 v -151.61 c 0,-5.1472 -3.2814,-9.2679 -7.3417,-9.2679 h -61.325 z"
       fill="url(#b)"
       stroke="#747997"
       stroke-linecap="square"
       stroke-linejoin="bevel"
       stroke-opacity="0.92308"
       stroke-width="0.8"
       id="path159"
       style="fill:url(#b)" />
    <path
       d="m 31.502,1972.7 h 12.001 v 19.936 H 31.502 Z"
       fill="#ffffff"
       id="path161" />
    <path
       d="m 60.96,1971.7 h 12.001 v 19.936 H 60.96 Z"
       fill="#ffffff"
       id="path163" />
    <path
       d="m 31.502,1998.6 h 12.001 v 19.936 H 31.502 Z"
       fill="#ffffff"
       id="path165" />
    <path
       d="m 60.96,1997.6 h 12.001 v 19.936 H 60.96 Z"
       fill="#ffffff"
       id="path167" />
    <path
       d="m 31.502,2026.5 h 12.001 v 19.936 H 31.502 Z"
       fill="#ffffff"
       id="path169" />
    <path
       d="m 60.96,2025.5 h 12.001 v 19.936 H 60.96 Z"
       fill="#ffffff"
       id="path171" />
    <path
       d="m 36.438,2059.1 h 32.575 v 42.719 H 36.438 Z"
       fill="#ffffff"
       id="path173" />
    <path
       d="m 134.59,1914.7 c -4.0602,0 -7.3417,4.1207 -7.3417,9.2679 v 174.13 c 0,0.6173 0.0645,1.2158 0.15424,1.7988 h 89.519 c 0.0897,-0.583 0.15424,-1.1815 0.15424,-1.7988 v -174.13 c 0,-5.1472 -3.2814,-9.2679 -7.3417,-9.2679 h -75.144 z"
       fill="url(#d)"
       stroke="#5d2967"
       stroke-linecap="square"
       stroke-linejoin="bevel"
       stroke-opacity="0.92308"
       stroke-width="0.8"
       id="path175"
       style="fill:url(#d)" />
    <path
       d="m 150.38,1965.9 h 11.182 v 19.997 H 150.38 Z"
       fill="#ffffff"
       id="path177" />
    <path
       d="m 177.83,1964.9 h 11.182 v 19.997 H 177.83 Z"
       fill="#ffffff"
       id="path179" />
    <path
       d="m 150.38,1991.9 h 11.182 v 19.997 H 150.38 Z"
       fill="#ffffff"
       id="path181" />
    <path
       d="m 177.83,1990.9 h 11.182 v 19.997 H 177.83 Z"
       fill="#ffffff"
       id="path183" />
    <path
       d="m 150.38,2019.9 h 11.182 v 19.997 H 150.38 Z"
       fill="#ffffff"
       id="path185" />
    <path
       d="m 177.83,2018.9 h 11.182 v 19.997 H 177.83 Z"
       fill="#ffffff"
       id="path187" />
    <path
       d="m 157.44,2056.8 h 29.599 v 42.052 H 157.44 Z"
       fill="#ffffff"
       id="path189" />
    <path
       d="m 1.8887,2096.9 c 16.547,-20.654 51.25,-18.876 77.982,-18.447 23.546,0.3784 44.572,17.798 68.111,18.447 29.611,0.8166 57.276,-19.816 86.866,-18.447 20.686,0.9573 46.992,2.0137 59.227,18.447 6.2208,8.3555 5.9227,7.7671 5.9227,7.7671 H 7.8074 c 0,0 -12.44,0.3671 -5.9227,-7.7671 z"
       fill="url(#e)"
       stroke="#278b27"
       stroke-linecap="square"
       stroke-linejoin="bevel"
       stroke-opacity="0.92308"
       stroke-width="0.7"
       id="path191"
       style="fill:url(#e)" />
  </g>
  <g
     id="g715"
     transform="matrix(0.20857218,0,0,0.56904054,-619.23368,-226.4475)">
    <polygon
       fill="#3aaa35"
       points="736.728,864.547 786.728,824.546 1337.092,824.546 1387.092,864.547 "
       id="polygon469" />
    <rect
       x="803.98297"
       y="505.56601"
       fill="#f4ddb8"
       width="512.58899"
       height="325.271"
       id="rect471" />
    <polygon
       fill="#ec6642"
       points="1306.711,374.253 1362.28,519.789 761.539,519.789 817.109,374.253 "
       id="polygon473" />
    <g
       id="g479">
      <rect
         x="1012.721"
         y="676.95502"
         fill="#7b6a58"
         width="98.376999"
         height="153.882"
         id="rect475" />
      <circle
         fill="#f39200"
         cx="1061.91"
         cy="759.565"
         r="5.6690001"
         id="circle477" />
    </g>
    <g
       id="g519">
      <g
         id="g495">
        <g
           id="g485">
          <rect
             x="830.85303"
             y="540.52002"
             fill="#36a9e1"
             width="145.72301"
             height="119.039"
             id="rect481" />
          <path
             fill="#7b6a58"
             d="M 979.411,662.393 H 828.018 V 537.685 h 151.393 z m -145.723,-5.67 H 973.741 V 543.355 H 833.688 Z"
             id="path483" />
        </g>
        <g
           id="g489">
          <rect
             x="830.85303"
             y="594.37097"
             fill="#7b6a58"
             width="145.72301"
             height="11.338"
             id="rect487" />
        </g>
        <g
           id="g493">
          <rect
             x="898.04498"
             y="540.52002"
             fill="#7b6a58"
             width="11.338"
             height="119.038"
             id="rect491" />
        </g>
      </g>
      <path
         fill="#ffffff"
         d="m 880.374,610.821 c 0,0 0.221,0.29 0.609,0.799 0.374,0.518 0.972,1.213 1.574,2.127 1.24,1.804 2.893,4.208 4.546,6.613 1.653,2.405 3.306,4.809 4.546,6.613 0.635,0.892 1.072,1.697 1.422,2.232 0.336,0.544 0.528,0.854 0.528,0.854 0,0 -0.221,-0.291 -0.608,-0.799 -0.374,-0.517 -0.969,-1.215 -1.575,-2.127 -1.24,-1.804 -2.893,-4.208 -4.546,-6.613 -1.653,-2.405 -3.306,-4.809 -4.546,-6.613 -0.638,-0.889 -1.072,-1.697 -1.422,-2.232 -0.336,-0.543 -0.528,-0.854 -0.528,-0.854 z"
         id="path497" />
      <path
         fill="#ffffff"
         d="m 876.024,607.638 c 0,0 0.33,0.42 0.908,1.154 0.286,0.37 0.633,0.818 1.031,1.333 0.404,0.511 0.85,1.093 1.288,1.762 1.821,2.628 4.249,6.131 6.677,9.635 2.428,3.504 4.856,7.007 6.677,9.635 0.472,0.645 0.856,1.27 1.192,1.827 0.341,0.554 0.637,1.036 0.882,1.434 0.489,0.795 0.768,1.249 0.768,1.249 0,0 -0.328,-0.422 -0.901,-1.16 -0.287,-0.369 -0.635,-0.817 -1.034,-1.331 -0.404,-0.511 -0.855,-1.09 -1.293,-1.759 -1.821,-2.628 -4.249,-6.131 -6.677,-9.635 -2.428,-3.504 -4.856,-7.007 -6.677,-9.635 -0.473,-0.645 -0.861,-1.267 -1.197,-1.824 -0.342,-0.553 -0.639,-1.035 -0.885,-1.432 -0.483,-0.797 -0.759,-1.253 -0.759,-1.253 z"
         id="path499" />
      <path
         fill="#ffffff"
         d="m 841.387,559.573 c 0,0 0.361,0.464 0.993,1.277 0.312,0.409 0.692,0.905 1.127,1.474 0.441,0.565 0.929,1.209 1.408,1.948 1.99,2.906 4.644,6.78 7.297,10.655 2.653,3.875 5.307,7.749 7.297,10.655 0.516,0.714 0.935,1.405 1.303,2.02 0.372,0.612 0.697,1.146 0.964,1.585 0.534,0.879 0.84,1.381 0.84,1.381 0,0 -0.358,-0.466 -0.984,-1.282 -0.313,-0.408 -0.694,-0.903 -1.13,-1.472 -0.441,-0.565 -0.934,-1.206 -1.413,-1.945 -1.99,-2.906 -4.644,-6.78 -7.297,-10.655 -2.654,-3.875 -5.307,-7.749 -7.297,-10.655 -0.517,-0.714 -0.941,-1.401 -1.308,-2.017 -0.373,-0.611 -0.699,-1.144 -0.967,-1.583 -0.53,-0.882 -0.833,-1.386 -0.833,-1.386 z"
         id="path501" />
      <path
         fill="#ffffff"
         d="m 844.354,567.706 c 0,0 1.125,1.546 2.759,3.902 1.62,2.365 3.78,5.519 5.94,8.673 2.16,3.154 4.32,6.308 5.94,8.673 0.817,1.178 1.453,2.19 1.919,2.885 0.46,0.699 0.722,1.098 0.722,1.098 0,0 -0.277,-0.389 -0.763,-1.07 -0.479,-0.686 -1.193,-1.644 -1.996,-2.832 -1.62,-2.365 -3.78,-5.519 -5.94,-8.673 -2.16,-3.154 -4.32,-6.308 -5.94,-8.673 -1.607,-2.375 -2.641,-3.983 -2.641,-3.983 z"
         id="path503" />
      <path
         fill="#ffffff"
         d="m 841.387,549.839 c 0,0 0.776,1.087 1.884,2.753 1.095,1.675 2.554,3.908 4.014,6.142 1.46,2.233 2.919,4.467 4.014,6.142 0.555,0.833 0.971,1.557 1.284,2.049 0.306,0.497 0.481,0.781 0.481,0.781 0,0 -0.19,-0.274 -0.522,-0.754 -0.326,-0.484 -0.822,-1.156 -1.362,-1.999 -1.095,-1.675 -2.554,-3.908 -4.014,-6.142 -1.46,-2.233 -2.919,-4.467 -4.014,-6.142 -1.081,-1.683 -1.765,-2.83 -1.765,-2.83 z"
         id="path505" />
      <path
         fill="#ffffff"
         d="m 926.029,550.959 c 0,0 1.472,2.062 3.626,5.193 2.14,3.14 4.994,7.327 7.848,11.513 2.854,4.187 5.708,8.373 7.848,11.513 1.078,1.565 1.93,2.9 2.548,3.82 0.612,0.925 0.961,1.453 0.961,1.453 0,0 -0.364,-0.518 -1.001,-1.425 -0.631,-0.912 -1.562,-2.193 -2.625,-3.768 -2.14,-3.14 -4.994,-7.327 -7.848,-11.513 -2.854,-4.187 -5.708,-8.373 -7.848,-11.513 -2.127,-3.148 -3.509,-5.273 -3.509,-5.273 z"
         id="path507" />
      <path
         fill="#ffffff"
         d="m 915.521,564.899 c 0,0 1.178,1.638 2.901,4.126 1.712,2.494 3.995,5.82 6.279,9.146 2.283,3.326 4.566,6.652 6.279,9.146 0.862,1.243 1.544,2.304 2.038,3.035 0.489,0.734 0.769,1.154 0.769,1.154 0,0 -0.291,-0.412 -0.801,-1.132 -0.505,-0.724 -1.25,-1.742 -2.1,-2.993 -1.712,-2.494 -3.996,-5.82 -6.279,-9.146 -2.283,-3.326 -4.566,-6.652 -6.279,-9.146 -1.702,-2.503 -2.807,-4.19 -2.807,-4.19 z"
         id="path509" />
      <path
         fill="#ffffff"
         d="m 921.551,577.118 c 0,0 0.696,0.974 1.714,2.453 1.012,1.483 2.36,3.46 3.709,5.438 1.349,1.977 2.698,3.955 3.709,5.438 0.509,0.739 0.912,1.37 1.204,1.804 0.289,0.437 0.454,0.686 0.454,0.686 0,0 -0.172,-0.245 -0.473,-0.673 -0.298,-0.431 -0.738,-1.036 -1.241,-1.78 -1.012,-1.483 -2.361,-3.46 -3.709,-5.438 -1.349,-1.977 -2.698,-3.955 -3.709,-5.438 -1.005,-1.486 -1.658,-2.49 -1.658,-2.49 z"
         id="path511" />
      <path
         fill="#ffffff"
         d="m 926.029,555.514 c 0,0 1.253,1.74 3.076,4.387 1.811,2.656 4.225,6.198 6.639,9.74 2.414,3.542 4.829,7.083 6.639,9.74 0.913,1.323 1.628,2.457 2.15,3.236 0.515,0.784 0.81,1.231 0.81,1.231 0,0 -0.309,-0.438 -0.85,-1.204 -0.534,-0.771 -1.328,-1.85 -2.226,-3.184 -1.811,-2.656 -4.225,-6.198 -6.639,-9.74 -2.414,-3.542 -4.829,-7.083 -6.639,-9.74 -1.798,-2.664 -2.96,-4.466 -2.96,-4.466 z"
         id="path513" />
      <path
         fill="#ffffff"
         d="m 911.894,616.169 c 0,0 0.317,0.433 0.871,1.19 0.54,0.767 1.377,1.817 2.264,3.158 1.811,2.656 4.225,6.198 6.639,9.74 2.414,3.542 4.829,7.083 6.639,9.74 0.92,1.318 1.596,2.479 2.111,3.262 0.503,0.792 0.79,1.245 0.79,1.245 0,0 -0.316,-0.433 -0.87,-1.19 -0.541,-0.766 -1.374,-1.819 -2.265,-3.157 -1.811,-2.656 -4.225,-6.198 -6.639,-9.74 -2.414,-3.542 -4.829,-7.083 -6.639,-9.74 -0.924,-1.316 -1.596,-2.479 -2.112,-3.262 -0.502,-0.793 -0.789,-1.246 -0.789,-1.246 z"
         id="path515" />
      <path
         fill="#ffffff"
         d="m 915.521,617.981 c 0,0 0.365,0.491 1.003,1.35 0.319,0.429 0.707,0.951 1.152,1.549 0.451,0.594 0.949,1.271 1.447,2.041 2.055,3.036 4.796,7.083 7.536,11.131 2.74,4.047 5.481,8.095 7.536,11.13 1.05,1.503 1.787,2.848 2.368,3.746 0.561,0.911 0.882,1.432 0.882,1.432 0,0 -0.365,-0.491 -1.003,-1.35 -0.618,-0.873 -1.593,-2.057 -2.599,-3.59 -2.055,-3.036 -4.796,-7.083 -7.536,-11.131 -2.74,-4.047 -5.481,-8.095 -7.536,-11.13 -0.53,-0.748 -0.974,-1.462 -1.358,-2.101 -0.39,-0.635 -0.731,-1.189 -1.011,-1.645 -0.561,-0.91 -0.881,-1.432 -0.881,-1.432 z"
         id="path517" />
    </g>
    <g
       id="g555">
      <g
         id="g535">
        <g
           id="g525">
          <rect
             x="830.85303"
             y="692.84302"
             fill="#36a9e1"
             width="145.72301"
             height="119.039"
             id="rect521" />
          <path
             fill="#7b6a58"
             d="M 979.411,814.717 H 828.018 V 690.009 h 151.393 z m -145.723,-5.67 H 973.741 V 695.678 H 833.688 Z"
             id="path523" />
        </g>
        <g
           id="g529">
          <rect
             x="830.85303"
             y="746.69397"
             fill="#7b6a58"
             width="145.72301"
             height="11.338"
             id="rect527" />
        </g>
        <g
           id="g533">
          <rect
             x="898.04498"
             y="692.84399"
             fill="#7b6a58"
             width="11.338"
             height="119.038"
             id="rect531" />
        </g>
      </g>
      <path
         fill="#ffffff"
         d="m 934.098,761.167 c 0,0 0.253,0.381 0.695,1.047 0.429,0.674 1.104,1.6 1.804,2.777 1.434,2.334 3.346,5.447 5.259,8.56 1.912,3.113 3.824,6.225 5.259,8.56 0.731,1.159 1.255,2.177 1.662,2.865 0.395,0.695 0.62,1.093 0.62,1.093 0,0 -0.253,-0.381 -0.695,-1.047 -0.43,-0.674 -1.101,-1.601 -1.804,-2.777 -1.434,-2.334 -3.346,-5.447 -5.259,-8.56 -1.912,-3.113 -3.824,-6.225 -5.259,-8.56 -0.734,-1.157 -1.255,-2.177 -1.662,-2.864 -0.395,-0.696 -0.62,-1.094 -0.62,-1.094 z"
         id="path537" />
      <path
         fill="#ffffff"
         d="m 934.098,765.234 c 0,0 0.389,0.601 1.069,1.652 0.667,1.059 1.681,2.535 2.789,4.373 2.25,3.655 5.249,8.529 8.248,13.403 2.999,4.874 5.999,9.748 8.248,13.403 1.138,1.819 2.002,3.387 2.647,4.461 0.632,1.081 0.994,1.698 0.994,1.698 0,0 -0.388,-0.601 -1.068,-1.652 -0.668,-1.059 -1.678,-2.537 -2.789,-4.373 -2.25,-3.655 -5.249,-8.529 -8.248,-13.403 -2.999,-4.874 -5.999,-9.748 -8.248,-13.403 -1.142,-1.817 -2.002,-3.387 -2.647,-4.46 -0.634,-1.082 -0.995,-1.699 -0.995,-1.699 z"
         id="path539" />
      <path
         fill="#ffffff"
         d="m 857.466,771.473 c 0,0 0.357,0.526 0.983,1.448 0.613,0.929 1.548,2.219 2.562,3.835 2.063,3.211 4.813,7.492 7.563,11.773 2.75,4.281 5.501,8.562 7.563,11.773 1.045,1.597 1.832,2.981 2.422,3.925 0.578,0.952 0.909,1.495 0.909,1.495 0,0 -0.357,-0.526 -0.982,-1.448 -0.613,-0.929 -1.545,-2.22 -2.563,-3.834 -2.063,-3.211 -4.813,-7.492 -7.563,-11.773 -2.75,-4.281 -5.501,-8.562 -7.563,-11.773 -1.048,-1.595 -1.832,-2.981 -2.423,-3.925 -0.578,-0.952 -0.908,-1.496 -0.908,-1.496 z"
         id="path541" />
      <path
         fill="#ffffff"
         d="m 857.466,766.577 c 0,0 0.3,0.437 0.825,1.202 0.512,0.773 1.304,1.839 2.146,3.187 1.718,2.674 4.009,6.24 6.3,9.806 2.291,3.566 4.582,7.132 6.3,9.806 0.872,1.329 1.516,2.489 2.006,3.277 0.478,0.795 0.751,1.249 0.751,1.249 0,0 -0.3,-0.437 -0.824,-1.202 -0.513,-0.773 -1.301,-1.841 -2.147,-3.186 -1.718,-2.674 -4.009,-6.24 -6.3,-9.806 -2.291,-3.566 -4.582,-7.132 -6.3,-9.806 -0.876,-1.326 -1.516,-2.489 -2.006,-3.276 -0.478,-0.797 -0.751,-1.251 -0.751,-1.251 z"
         id="path543" />
      <path
         fill="#ffffff"
         d="m 866.63,699.558 c 0,0 0.3,0.437 0.825,1.202 0.512,0.773 1.304,1.839 2.146,3.187 1.718,2.674 4.009,6.24 6.3,9.806 2.291,3.566 4.582,7.132 6.3,9.806 0.872,1.329 1.516,2.489 2.006,3.277 0.478,0.795 0.751,1.249 0.751,1.249 0,0 -0.3,-0.437 -0.824,-1.202 -0.513,-0.773 -1.301,-1.841 -2.147,-3.186 -1.718,-2.674 -4.009,-6.24 -6.3,-9.806 -2.291,-3.566 -4.582,-7.132 -6.3,-9.806 -0.876,-1.326 -1.516,-2.489 -2.006,-3.276 -0.479,-0.797 -0.751,-1.251 -0.751,-1.251 z"
         id="path545" />
      <path
         fill="#ffffff"
         d="m 871.917,710.939 c 0,0 0.3,0.437 0.825,1.202 0.512,0.773 1.304,1.839 2.146,3.187 1.718,2.674 4.009,6.24 6.3,9.806 2.291,3.566 4.582,7.132 6.3,9.806 0.872,1.329 1.516,2.489 2.006,3.277 0.478,0.795 0.751,1.249 0.751,1.249 0,0 -0.3,-0.437 -0.824,-1.202 -0.513,-0.773 -1.301,-1.841 -2.147,-3.186 -1.718,-2.674 -4.009,-6.24 -6.3,-9.806 -2.291,-3.566 -4.582,-7.132 -6.3,-9.806 -0.876,-1.326 -1.516,-2.489 -2.006,-3.276 -0.478,-0.797 -0.751,-1.251 -0.751,-1.251 z"
         id="path547" />
      <path
         fill="#ffffff"
         d="m 931.069,697.704 c 0,0 0.3,0.437 0.825,1.202 0.512,0.773 1.304,1.839 2.146,3.187 1.718,2.674 4.009,6.24 6.3,9.806 2.291,3.566 4.582,7.132 6.3,9.806 0.872,1.329 1.516,2.489 2.006,3.277 0.478,0.795 0.751,1.249 0.751,1.249 0,0 -0.3,-0.437 -0.824,-1.202 -0.513,-0.773 -1.301,-1.841 -2.147,-3.186 -1.718,-2.674 -4.009,-6.24 -6.3,-9.806 -2.291,-3.566 -4.582,-7.132 -6.3,-9.806 -0.876,-1.326 -1.516,-2.489 -2.006,-3.276 -0.478,-0.796 -0.751,-1.251 -0.751,-1.251 z"
         id="path549" />
      <path
         fill="#ffffff"
         d="m 938.686,706.086 c 0,0 0.3,0.437 0.825,1.202 0.512,0.773 1.304,1.839 2.146,3.187 1.718,2.674 4.009,6.24 6.3,9.806 2.291,3.566 4.582,7.132 6.3,9.806 0.872,1.329 1.516,2.489 2.006,3.277 0.478,0.795 0.751,1.249 0.751,1.249 0,0 -0.3,-0.437 -0.824,-1.202 -0.513,-0.773 -1.301,-1.841 -2.147,-3.186 -1.718,-2.674 -4.009,-6.24 -6.3,-9.806 -2.291,-3.566 -4.582,-7.132 -6.3,-9.806 -0.876,-1.326 -1.516,-2.489 -2.006,-3.276 -0.478,-0.797 -0.751,-1.251 -0.751,-1.251 z"
         id="path551" />
      <path
         fill="#ffffff"
         d="m 948.93,716.87 c 0,0 0.3,0.437 0.825,1.202 0.512,0.773 1.304,1.839 2.146,3.187 1.718,2.674 4.009,6.24 6.3,9.806 2.291,3.566 4.582,7.132 6.3,9.806 0.872,1.329 1.516,2.489 2.006,3.277 0.478,0.795 0.751,1.249 0.751,1.249 0,0 -0.3,-0.437 -0.824,-1.202 -0.513,-0.773 -1.301,-1.841 -2.147,-3.186 -1.718,-2.674 -4.009,-6.24 -6.3,-9.806 -2.291,-3.566 -4.582,-7.132 -6.3,-9.806 -0.876,-1.326 -1.516,-2.489 -2.006,-3.276 -0.479,-0.797 -0.751,-1.251 -0.751,-1.251 z"
         id="path553" />
    </g>
    <g
       id="g589">
      <g
         id="g571">
        <g
           id="g561">
          <rect
             x="1147.244"
             y="692.84302"
             fill="#36a9e1"
             width="145.72301"
             height="119.039"
             id="rect557" />
          <path
             fill="#7b6a58"
             d="M 1295.801,814.717 H 1144.408 V 690.009 h 151.393 z m -145.722,-5.67 h 140.053 V 695.678 h -140.053 z"
             id="path559" />
        </g>
        <g
           id="g565">
          <rect
             x="1144.363"
             y="746.69397"
             fill="#7b6a58"
             width="145.72301"
             height="11.338"
             id="rect563" />
        </g>
        <g
           id="g569">
          <rect
             x="1211.5551"
             y="692.84399"
             fill="#7b6a58"
             width="11.338"
             height="119.038"
             id="rect567" />
        </g>
      </g>
      <path
         fill="#ffffff"
         d="m 1248.438,701.481 c 0,0 0.382,0.591 1.05,1.624 0.655,1.041 1.652,2.492 2.739,4.299 2.208,3.594 5.152,8.385 8.096,13.177 2.944,4.792 5.888,9.583 8.096,13.177 1.117,1.789 1.964,3.331 2.597,4.386 0.62,1.063 0.974,1.67 0.974,1.67 0,0 -0.381,-0.591 -1.049,-1.624 -0.656,-1.041 -1.649,-2.493 -2.739,-4.299 -2.208,-3.594 -5.152,-8.385 -8.096,-13.177 -2.944,-4.792 -5.888,-9.583 -8.096,-13.177 -1.121,-1.787 -1.964,-3.331 -2.597,-4.386 -0.621,-1.062 -0.975,-1.67 -0.975,-1.67 z"
         id="path573" />
      <path
         fill="#ffffff"
         d="m 1243.509,700.121 c 0,0 0.253,0.381 0.695,1.047 0.429,0.674 1.104,1.6 1.804,2.777 1.434,2.334 3.346,5.447 5.259,8.56 1.912,3.113 3.824,6.225 5.259,8.56 0.731,1.159 1.255,2.177 1.662,2.865 0.395,0.695 0.62,1.093 0.62,1.093 0,0 -0.253,-0.381 -0.695,-1.047 -0.43,-0.674 -1.101,-1.601 -1.804,-2.777 -1.434,-2.334 -3.346,-5.447 -5.259,-8.56 -1.912,-3.113 -3.824,-6.225 -5.259,-8.56 -0.734,-1.157 -1.255,-2.177 -1.662,-2.864 -0.394,-0.696 -0.62,-1.094 -0.62,-1.094 z"
         id="path575" />
      <path
         fill="#ffffff"
         d="m 1182.173,696.802 c 0,0 0.253,0.381 0.695,1.047 0.429,0.674 1.104,1.6 1.804,2.777 1.434,2.334 3.346,5.447 5.259,8.56 1.912,3.113 3.824,6.225 5.259,8.56 0.731,1.159 1.255,2.177 1.662,2.865 0.395,0.695 0.62,1.093 0.62,1.093 0,0 -0.253,-0.381 -0.695,-1.047 -0.43,-0.674 -1.101,-1.601 -1.804,-2.777 -1.434,-2.334 -3.346,-5.447 -5.259,-8.56 -1.912,-3.113 -3.824,-6.225 -5.259,-8.56 -0.734,-1.157 -1.255,-2.177 -1.662,-2.864 -0.394,-0.696 -0.62,-1.094 -0.62,-1.094 z"
         id="path577" />
      <path
         fill="#ffffff"
         d="m 1174.524,782.15 c 0,0 0.253,0.381 0.695,1.047 0.429,0.674 1.104,1.6 1.804,2.777 1.434,2.334 3.346,5.447 5.259,8.56 1.912,3.113 3.824,6.225 5.259,8.56 0.731,1.159 1.255,2.177 1.662,2.865 0.395,0.695 0.62,1.093 0.62,1.093 0,0 -0.253,-0.381 -0.695,-1.047 -0.43,-0.674 -1.101,-1.601 -1.804,-2.777 -1.434,-2.334 -3.346,-5.447 -5.259,-8.56 -1.912,-3.113 -3.824,-6.225 -5.259,-8.56 -0.734,-1.157 -1.255,-2.177 -1.662,-2.864 -0.394,-0.697 -0.62,-1.094 -0.62,-1.094 z"
         id="path579" />
      <path
         fill="#ffffff"
         d="m 1173.271,776.537 c 0,0 0.253,0.381 0.695,1.047 0.429,0.674 1.104,1.6 1.804,2.777 1.434,2.334 3.346,5.447 5.259,8.56 1.912,3.113 3.824,6.225 5.259,8.56 0.731,1.159 1.255,2.177 1.662,2.865 0.395,0.695 0.62,1.093 0.62,1.093 0,0 -0.253,-0.381 -0.695,-1.047 -0.43,-0.674 -1.101,-1.601 -1.804,-2.777 -1.434,-2.334 -3.346,-5.447 -5.259,-8.56 -1.912,-3.113 -3.824,-6.225 -5.259,-8.56 -0.734,-1.157 -1.255,-2.177 -1.662,-2.864 -0.395,-0.696 -0.62,-1.094 -0.62,-1.094 z"
         id="path581" />
      <path
         fill="#ffffff"
         d="m 1266.522,769.7 c 0,0 0.253,0.381 0.695,1.047 0.429,0.674 1.104,1.6 1.804,2.777 1.434,2.334 3.346,5.447 5.259,8.56 1.912,3.113 3.824,6.225 5.259,8.56 0.731,1.159 1.255,2.177 1.662,2.865 0.395,0.695 0.62,1.093 0.62,1.093 0,0 -0.253,-0.381 -0.695,-1.047 -0.43,-0.674 -1.101,-1.601 -1.804,-2.777 -1.434,-2.334 -3.346,-5.447 -5.259,-8.56 -1.912,-3.113 -3.824,-6.225 -5.259,-8.56 -0.734,-1.157 -1.255,-2.177 -1.662,-2.864 -0.395,-0.697 -0.62,-1.094 -0.62,-1.094 z"
         id="path583" />
      <path
         fill="#ffffff"
         d="m 1269.091,777.825 c 0,0 0.253,0.381 0.695,1.047 0.429,0.674 1.104,1.6 1.804,2.777 1.434,2.334 3.346,5.447 5.259,8.56 1.912,3.113 3.824,6.225 5.259,8.56 0.731,1.159 1.255,2.177 1.662,2.865 0.395,0.695 0.62,1.093 0.62,1.093 0,0 -0.253,-0.381 -0.695,-1.047 -0.43,-0.674 -1.101,-1.601 -1.804,-2.777 -1.434,-2.334 -3.346,-5.447 -5.259,-8.56 -1.912,-3.113 -3.824,-6.225 -5.259,-8.56 -0.734,-1.157 -1.255,-2.177 -1.662,-2.864 -0.395,-0.696 -0.62,-1.094 -0.62,-1.094 z"
         id="path585" />
      <path
         fill="#ffffff"
         d="m 1185.998,697.82 c 0,0 0.372,0.566 1.024,1.557 0.639,0.999 1.611,2.389 2.67,4.124 2.151,3.449 5.02,8.048 7.888,12.647 2.868,4.599 5.737,9.198 7.888,12.647 1.089,1.716 1.913,3.199 2.528,4.212 0.604,1.021 0.949,1.604 0.949,1.604 0,0 -0.372,-0.566 -1.023,-1.558 -0.639,-0.999 -1.608,-2.391 -2.67,-4.124 -2.151,-3.449 -5.02,-8.048 -7.888,-12.647 -2.868,-4.599 -5.737,-9.198 -7.888,-12.647 -1.093,-1.714 -1.913,-3.199 -2.529,-4.212 -0.604,-1.02 -0.949,-1.603 -0.949,-1.603 z"
         id="path587" />
    </g>
    <g
       id="g625">
      <g
         id="g605">
        <g
           id="g595">
          <rect
             x="1147.244"
             y="540.52002"
             fill="#36a9e1"
             width="145.72301"
             height="119.039"
             id="rect591" />
          <path
             fill="#7b6a58"
             d="M 1295.801,662.393 H 1144.408 V 537.685 h 151.393 z m -145.722,-5.67 h 140.053 V 543.355 h -140.053 z"
             id="path593" />
        </g>
        <g
           id="g599">
          <rect
             x="1144.363"
             y="594.37097"
             fill="#7b6a58"
             width="145.72301"
             height="11.338"
             id="rect597" />
        </g>
        <g
           id="g603">
          <rect
             x="1211.5551"
             y="540.52002"
             fill="#7b6a58"
             width="11.338"
             height="119.038"
             id="rect601" />
        </g>
      </g>
      <path
         fill="#ffffff"
         d="m 1177.564,610.309 c 0,0 0.311,0.478 0.857,1.314 0.531,0.845 1.356,2.01 2.226,3.483 1.777,2.922 4.146,6.818 6.515,10.714 2.369,3.896 4.738,7.792 6.515,10.714 0.903,1.452 1.562,2.719 2.068,3.579 0.492,0.868 0.773,1.365 0.773,1.365 0,0 -0.311,-0.478 -0.856,-1.314 -0.531,-0.844 -1.353,-2.012 -2.226,-3.483 -1.777,-2.922 -4.146,-6.818 -6.515,-10.714 -2.369,-3.896 -4.738,-7.792 -6.515,-10.714 -0.907,-1.45 -1.562,-2.719 -2.068,-3.579 -0.493,-0.868 -0.774,-1.365 -0.774,-1.365 z"
         id="path607" />
      <path
         fill="#ffffff"
         d="m 1182.818,611.534 c 0,0 0.421,0.65 1.157,1.788 0.722,1.147 1.82,2.744 3.017,4.735 2.432,3.958 5.674,9.236 8.917,14.514 3.243,5.278 6.485,10.556 8.917,14.514 1.231,1.97 2.163,3.669 2.859,4.832 0.683,1.171 1.073,1.84 1.073,1.84 0,0 -0.42,-0.65 -1.156,-1.789 -0.722,-1.147 -1.817,-2.746 -3.018,-4.734 -2.432,-3.958 -5.674,-9.236 -8.917,-14.514 -3.243,-5.278 -6.485,-10.556 -8.917,-14.514 -1.235,-1.968 -2.163,-3.669 -2.86,-4.831 -0.682,-1.172 -1.072,-1.841 -1.072,-1.841 z"
         id="path609" />
      <path
         fill="#ffffff"
         d="m 1153.844,549.039 c 0,0 0.368,0.565 1.013,1.554 0.63,0.998 1.597,2.381 2.637,4.116 2.117,3.446 4.941,8.042 7.764,12.637 2.823,4.595 5.646,9.191 7.764,12.637 1.074,1.714 1.875,3.2 2.479,4.213 0.591,1.021 0.929,1.605 0.929,1.605 0,0 -0.368,-0.565 -1.012,-1.554 -0.63,-0.997 -1.594,-2.383 -2.638,-4.116 -2.117,-3.446 -4.941,-8.042 -7.764,-12.637 -2.823,-4.595 -5.646,-9.191 -7.764,-12.637 -1.077,-1.712 -1.875,-3.2 -2.48,-4.213 -0.591,-1.021 -0.928,-1.605 -0.928,-1.605 z"
         id="path611" />
      <path
         fill="#ffffff"
         d="m 1160.065,552.928 c 0,0 1.519,2.367 3.74,5.953 2.208,3.594 5.152,8.385 8.096,13.177 2.944,4.792 5.888,9.583 8.096,13.177 1.111,1.792 1.991,3.315 2.628,4.367 0.631,1.056 0.991,1.66 0.991,1.66 0,0 -0.375,-0.594 -1.033,-1.634 -0.65,-1.044 -1.611,-2.517 -2.707,-4.318 -2.208,-3.594 -5.152,-8.385 -8.096,-13.177 -2.944,-4.792 -5.888,-9.583 -8.096,-13.177 -2.194,-3.603 -3.619,-6.028 -3.619,-6.028 z"
         id="path613" />
      <path
         fill="#ffffff"
         d="m 1260.305,548.253 c 0,0 0.382,0.591 1.05,1.624 0.655,1.041 1.652,2.492 2.739,4.299 2.208,3.594 5.152,8.385 8.096,13.177 2.944,4.792 5.888,9.583 8.096,13.177 1.117,1.789 1.964,3.331 2.597,4.386 0.62,1.063 0.974,1.67 0.974,1.67 0,0 -0.381,-0.591 -1.049,-1.624 -0.656,-1.041 -1.649,-2.493 -2.739,-4.299 -2.208,-3.594 -5.152,-8.385 -8.096,-13.177 -2.944,-4.792 -5.888,-9.583 -8.096,-13.177 -1.121,-1.787 -1.964,-3.331 -2.597,-4.386 -0.621,-1.062 -0.975,-1.67 -0.975,-1.67 z"
         id="path615" />
      <path
         fill="#ffffff"
         d="m 1256.261,548.253 c 0,0 0.382,0.591 1.05,1.624 0.655,1.041 1.652,2.492 2.739,4.299 2.208,3.594 5.152,8.385 8.096,13.177 2.944,4.792 5.888,9.583 8.096,13.177 1.117,1.789 1.964,3.331 2.597,4.386 0.62,1.063 0.974,1.67 0.974,1.67 0,0 -0.381,-0.591 -1.049,-1.624 -0.656,-1.041 -1.649,-2.493 -2.739,-4.299 -2.208,-3.594 -5.152,-8.385 -8.096,-13.177 -2.944,-4.792 -5.888,-9.583 -8.096,-13.177 -1.121,-1.787 -1.964,-3.331 -2.597,-4.386 -0.621,-1.062 -0.975,-1.67 -0.975,-1.67 z"
         id="path617" />
      <path
         fill="#ffffff"
         d="m 1248.53,608.853 c 0,0 0.382,0.591 1.05,1.624 0.655,1.041 1.652,2.492 2.739,4.299 2.208,3.594 5.152,8.385 8.096,13.177 2.944,4.792 5.888,9.583 8.096,13.177 1.117,1.789 1.964,3.331 2.597,4.386 0.62,1.063 0.974,1.67 0.974,1.67 0,0 -0.381,-0.591 -1.049,-1.624 -0.656,-1.041 -1.649,-2.493 -2.739,-4.299 -2.208,-3.594 -5.152,-8.385 -8.096,-13.177 -2.944,-4.792 -5.888,-9.583 -8.096,-13.177 -1.121,-1.787 -1.964,-3.331 -2.597,-4.386 -0.621,-1.062 -0.975,-1.67 -0.975,-1.67 z"
         id="path619" />
      <path
         fill="#ffffff"
         d="m 1256.261,628.007 c 0,0 0.261,0.394 0.718,1.083 0.444,0.697 1.138,1.656 1.863,2.873 1.483,2.414 3.46,5.633 5.438,8.851 1.977,3.219 3.955,6.437 5.438,8.851 0.755,1.199 1.3,2.249 1.721,2.961 0.409,0.719 0.642,1.129 0.642,1.129 0,0 -0.261,-0.394 -0.717,-1.083 -0.444,-0.697 -1.135,-1.658 -1.863,-2.873 -1.483,-2.414 -3.46,-5.633 -5.438,-8.851 -1.977,-3.219 -3.955,-6.437 -5.438,-8.851 -0.758,-1.197 -1.3,-2.249 -1.721,-2.96 -0.41,-0.719 -0.643,-1.13 -0.643,-1.13 z"
         id="path621" />
      <path
         fill="#ffffff"
         d="m 1260.305,638.653 c 0,0 0.183,0.267 0.504,0.735 0.307,0.476 0.808,1.118 1.299,1.956 1.016,1.654 2.372,3.86 3.727,6.066 1.355,2.206 2.711,4.412 3.727,6.066 0.522,0.819 0.872,1.553 1.157,2.043 0.273,0.497 0.429,0.781 0.429,0.781 0,0 -0.183,-0.267 -0.503,-0.735 -0.308,-0.475 -0.805,-1.12 -1.299,-1.955 -1.016,-1.654 -2.372,-3.86 -3.727,-6.066 -1.355,-2.206 -2.71,-4.412 -3.727,-6.066 -0.525,-0.817 -0.872,-1.553 -1.157,-2.043 -0.274,-0.498 -0.43,-0.782 -0.43,-0.782 z"
         id="path623" />
    </g>
    <g
       id="g659">
      <g
         id="g641">
        <g
           id="g631">
          <ellipse
             fill="#36a9e1"
             cx="1061.91"
             cy="603.03003"
             rx="49.188"
             ry="55.325001"
             id="ellipse627" />
          <path
             fill="#7b6a58"
             d="m 1061.91,661.19 c -28.686,0 -52.023,-26.091 -52.023,-58.16 0,-32.069 23.338,-58.16 52.023,-58.16 28.685,0 52.023,26.091 52.023,58.16 0,32.069 -23.338,58.16 -52.023,58.16 z m 0,-110.65 c -25.56,0 -46.353,23.547 -46.353,52.49 0,28.943 20.794,52.49 46.353,52.49 25.559,0 46.354,-23.547 46.354,-52.49 0,-28.943 -20.795,-52.49 -46.354,-52.49 z"
             id="path629" />
        </g>
        <g
           id="g635">
          <rect
             x="1012.721"
             y="597.06"
             fill="#7b6a58"
             width="98.376999"
             height="11.338"
             id="rect633" />
        </g>
        <g
           id="g639">
          <rect
             x="1056.241"
             y="547.70502"
             fill="#7b6a58"
             width="11.338"
             height="110.05"
             id="rect637" />
        </g>
      </g>
      <path
         fill="#ffffff"
         d="m 1033.358,609.325 c 0,0 0.365,0.491 1.004,1.35 0.319,0.429 0.707,0.951 1.152,1.549 0.451,0.594 0.949,1.271 1.447,2.041 2.055,3.036 4.796,7.083 7.536,11.131 2.74,4.047 5.481,8.095 7.536,11.13 1.05,1.503 1.787,2.848 2.368,3.746 0.561,0.911 0.882,1.432 0.882,1.432 0,0 -0.365,-0.491 -1.003,-1.35 -0.618,-0.873 -1.593,-2.057 -2.599,-3.59 -2.055,-3.036 -4.796,-7.083 -7.536,-11.131 -2.74,-4.047 -5.481,-8.095 -7.536,-11.13 -0.53,-0.748 -0.974,-1.462 -1.358,-2.101 -0.39,-0.635 -0.731,-1.189 -1.011,-1.645 -0.562,-0.911 -0.882,-1.432 -0.882,-1.432 z"
         id="path643" />
      <path
         fill="#ffffff"
         d="m 1036.819,609.867 c 0,0 0.26,0.361 0.714,0.992 0.444,0.638 1.125,1.519 1.859,2.631 1.495,2.207 3.487,5.151 5.48,8.094 1.993,2.943 3.986,5.886 5.48,8.094 0.758,1.097 1.325,2.054 1.752,2.704 0.418,0.656 0.657,1.031 0.657,1.031 0,0 -0.259,-0.361 -0.713,-0.993 -0.445,-0.638 -1.123,-1.52 -1.86,-2.631 -1.495,-2.207 -3.487,-5.151 -5.48,-8.094 -1.993,-2.943 -3.986,-5.886 -5.48,-8.094 -0.76,-1.095 -1.325,-2.054 -1.753,-2.703 -0.418,-0.656 -0.656,-1.031 -0.656,-1.031 z"
         id="path645" />
      <path
         fill="#ffffff"
         d="m 1033.412,563.209 c 0,0 0.27,0.474 0.742,1.303 0.445,0.843 1.18,1.997 1.883,3.471 1.461,2.921 3.409,6.817 5.357,10.712 1.948,3.895 3.896,7.79 5.357,10.712 0.754,1.449 1.235,2.73 1.641,3.592 0.385,0.873 0.604,1.372 0.604,1.372 0,0 -0.267,-0.475 -0.735,-1.306 -0.447,-0.842 -1.183,-1.995 -1.89,-3.468 -1.461,-2.921 -3.409,-6.817 -5.357,-10.712 -1.948,-3.895 -3.896,-7.79 -5.357,-10.712 -0.759,-1.447 -1.24,-2.727 -1.648,-3.589 -0.38,-0.875 -0.597,-1.375 -0.597,-1.375 z"
         id="path647" />
      <path
         fill="#ffffff"
         d="m 1070.056,610.309 c 0,0 0.254,0.388 0.7,1.068 0.434,0.687 1.107,1.635 1.819,2.832 1.453,2.375 3.39,5.542 5.328,8.71 1.937,3.167 3.875,6.334 5.328,8.71 0.739,1.18 1.279,2.21 1.692,2.909 0.403,0.706 0.633,1.109 0.633,1.109 0,0 -0.254,-0.388 -0.699,-1.068 -0.434,-0.686 -1.105,-1.636 -1.819,-2.831 -1.453,-2.375 -3.39,-5.542 -5.328,-8.71 -1.937,-3.167 -3.875,-6.334 -5.328,-8.71 -0.742,-1.178 -1.279,-2.21 -1.693,-2.909 -0.403,-0.706 -0.633,-1.11 -0.633,-1.11 z"
         id="path649" />
      <path
         fill="#ffffff"
         d="m 1073.833,611.534 c 0,0 0.285,0.431 0.783,1.186 0.484,0.763 1.242,1.813 2.031,3.146 1.616,2.643 3.77,6.167 5.925,9.692 2.154,3.524 4.309,7.048 5.925,9.692 0.823,1.312 1.415,2.463 1.873,3.242 0.445,0.787 0.699,1.237 0.699,1.237 0,0 -0.284,-0.431 -0.782,-1.186 -0.484,-0.763 -1.239,-1.815 -2.032,-3.145 -1.616,-2.643 -3.77,-6.167 -5.925,-9.692 -2.154,-3.524 -4.309,-7.048 -5.925,-9.692 -0.827,-1.31 -1.415,-2.464 -1.874,-3.242 -0.444,-0.788 -0.698,-1.238 -0.698,-1.238 z"
         id="path651" />
      <path
         fill="#ffffff"
         d="m 1069.102,561.415 c 0,0 0.244,0.396 0.671,1.089 0.4,0.707 1.07,1.665 1.696,2.909 1.308,2.458 3.052,5.736 4.795,9.014 1.743,3.278 3.487,6.556 4.795,9.014 0.677,1.217 1.096,2.308 1.457,3.036 0.34,0.739 0.535,1.161 0.535,1.161 0,0 -0.241,-0.397 -0.664,-1.092 -0.402,-0.706 -1.073,-1.663 -1.703,-2.905 -1.308,-2.458 -3.051,-5.736 -4.795,-9.014 -1.744,-3.278 -3.487,-6.556 -4.795,-9.014 -0.682,-1.214 -1.101,-2.305 -1.464,-3.032 -0.336,-0.743 -0.528,-1.166 -0.528,-1.166 z"
         id="path653" />
      <path
         fill="#ffffff"
         d="m 1072.175,563.493 c 0,0 0.271,0.472 0.747,1.298 0.465,0.832 1.177,1.993 1.945,3.435 1.563,2.868 3.646,6.693 5.73,10.517 2.084,3.824 4.167,7.649 5.73,10.517 0.792,1.428 1.385,2.655 1.831,3.497 0.437,0.847 0.686,1.331 0.686,1.331 0,0 -0.271,-0.472 -0.746,-1.298 -0.465,-0.831 -1.175,-1.995 -1.946,-3.435 -1.563,-2.868 -3.646,-6.693 -5.73,-10.517 -2.084,-3.824 -4.167,-7.648 -5.73,-10.517 -0.795,-1.427 -1.385,-2.655 -1.832,-3.497 -0.435,-0.847 -0.685,-1.331 -0.685,-1.331 z"
         id="path655" />
      <path
         fill="#ffffff"
         d="m 1035.917,564.276 c 0,0 0.21,0.392 0.577,1.078 0.356,0.691 0.915,1.654 1.497,2.853 1.191,2.385 2.779,5.565 4.367,8.745 1.588,3.18 3.176,6.36 4.367,8.745 0.607,1.187 1.043,2.211 1.381,2.911 0.328,0.705 0.515,1.108 0.515,1.108 0,0 -0.21,-0.392 -0.576,-1.078 -0.357,-0.691 -0.913,-1.655 -1.497,-2.853 -1.191,-2.385 -2.779,-5.565 -4.367,-8.745 -1.588,-3.18 -3.176,-6.36 -4.367,-8.745 -0.609,-1.186 -1.043,-2.211 -1.381,-2.911 -0.329,-0.705 -0.516,-1.108 -0.516,-1.108 z"
         id="path657" />
    </g>
    <g
       id="g713">
      <g
         id="g685">
        <polygon
           fill="#edeaef"
           points="750.318,864.547 736.728,864.547 736.728,765.964 743.523,755.964 750.318,765.964 "
           id="polygon661" />
        <polygon
           fill="#edeaef"
           points="775.538,864.547 761.949,864.547 761.949,765.964 768.743,755.964 775.538,765.964 "
           id="polygon663" />
        <polygon
           fill="#edeaef"
           points="800.759,864.547 787.169,864.547 787.169,765.964 793.964,755.964 800.759,765.964 "
           id="polygon665" />
        <polygon
           fill="#edeaef"
           points="825.979,864.547 812.39,864.547 812.39,765.964 819.185,755.964 825.979,765.964 "
           id="polygon667" />
        <polygon
           fill="#edeaef"
           points="851.2,864.547 837.61,864.547 837.61,765.964 844.405,755.964 851.2,765.964 "
           id="polygon669" />
        <polygon
           fill="#edeaef"
           points="876.42,864.547 862.831,864.547 862.831,765.964 869.626,755.964 876.42,765.964 "
           id="polygon671" />
        <polygon
           fill="#edeaef"
           points="901.641,864.547 888.051,864.547 888.051,765.964 894.846,755.964 901.641,765.964 "
           id="polygon673" />
        <polygon
           fill="#edeaef"
           points="926.862,864.547 913.272,864.547 913.272,765.964 920.067,755.964 926.862,765.964 "
           id="polygon675" />
        <polygon
           fill="#edeaef"
           points="952.082,864.547 938.492,864.547 938.492,765.964 945.287,755.964 952.082,765.964 "
           id="polygon677" />
        <polygon
           fill="#edeaef"
           points="977.303,864.547 963.713,864.547 963.713,765.964 970.508,755.964 977.303,765.964 "
           id="polygon679" />
        <polygon
           fill="#edeaef"
           points="1002.523,864.547 988.933,864.547 988.933,765.964 995.728,755.964 1002.523,765.964 "
           id="polygon681" />
        <rect
           x="742.00598"
           y="813.30701"
           fill="#edeaef"
           width="253.722"
           height="10.384"
           id="rect683" />
      </g>
      <g
         id="g711">
        <polygon
           fill="#edeaef"
           points="1134.111,864.547 1120.521,864.547 1120.521,765.964 1127.316,755.964 1134.111,765.964 "
           id="polygon687" />
        <polygon
           fill="#edeaef"
           points="1159.331,864.547 1145.741,864.547 1145.741,765.964 1152.536,755.964 1159.331,765.964 "
           id="polygon689" />
        <polygon
           fill="#edeaef"
           points="1184.552,864.547 1170.962,864.547 1170.962,765.964 1177.757,755.964 1184.552,765.964 "
           id="polygon691" />
        <polygon
           fill="#edeaef"
           points="1209.772,864.547 1196.183,864.547 1196.183,765.964 1202.977,755.964 1209.772,765.964 "
           id="polygon693" />
        <polygon
           fill="#edeaef"
           points="1234.993,864.547 1221.403,864.547 1221.403,765.964 1228.198,755.964 1234.993,765.964 "
           id="polygon695" />
        <polygon
           fill="#edeaef"
           points="1260.213,864.547 1246.624,864.547 1246.624,765.964 1253.418,755.964 1260.213,765.964 "
           id="polygon697" />
        <polygon
           fill="#edeaef"
           points="1285.434,864.547 1271.844,864.547 1271.844,765.964 1278.639,755.964 1285.434,765.964 "
           id="polygon699" />
        <polygon
           fill="#edeaef"
           points="1310.654,864.547 1297.065,864.547 1297.065,765.964 1303.86,755.964 1310.654,765.964 "
           id="polygon701" />
        <polygon
           fill="#edeaef"
           points="1335.875,864.547 1322.285,864.547 1322.285,765.964 1329.08,755.964 1335.875,765.964 "
           id="polygon703" />
        <polygon
           fill="#edeaef"
           points="1361.096,864.547 1347.506,864.547 1347.506,765.964 1354.301,755.964 1361.096,765.964 "
           id="polygon705" />
        <polygon
           fill="#edeaef"
           points="1386.316,864.547 1372.726,864.547 1372.726,765.964 1379.521,755.964 1386.316,765.964 "
           id="polygon707" />
        <rect
           x="1125.799"
           y="813.30701"
           fill="#edeaef"
           width="253.722"
           height="10.384"
           id="rect709" />
      </g>
    </g>
  </g>
</svg>
