<svg width="814" height="813" viewBox="0 0 814 813" fill="none" xmlns="http://www.w3.org/2000/svg">
<circle opacity="0.4" cx="407" cy="406" r="400" fill="#FFF1F1"/>
<g filter="url(#filter0_f_5_16)">
<mask id="path-2-outside-1_5_16" maskUnits="userSpaceOnUse" x="33" y="2.00003" width="367" height="333" fill="black">
<rect fill="white" x="33" y="2.00003" width="367" height="333"/>
<path d="M383.191 16.7275C382.854 11.2149 378.109 7.00652 372.607 7.48136C300.432 13.7098 231.234 39.4315 172.451 81.9833C113.668 124.535 67.6202 182.237 39.1607 248.856C36.991 253.935 39.5069 259.757 44.6384 261.799L211.882 328.353C217.014 330.395 222.806 327.878 225.102 322.855C239.444 291.478 261.687 264.288 289.726 243.992C317.764 223.695 350.541 211.057 384.828 207.233C390.317 206.621 394.517 201.904 394.18 196.392L383.191 16.7275Z"/>
</mask>
<path d="M383.191 16.7275C382.854 11.2149 378.109 7.00652 372.607 7.48136C300.432 13.7098 231.234 39.4315 172.451 81.9833C113.668 124.535 67.6202 182.237 39.1607 248.856C36.991 253.935 39.5069 259.757 44.6384 261.799L211.882 328.353C217.014 330.395 222.806 327.878 225.102 322.855C239.444 291.478 261.687 264.288 289.726 243.992C317.764 223.695 350.541 211.057 384.828 207.233C390.317 206.621 394.517 201.904 394.18 196.392L383.191 16.7275Z" fill="white"/>
<path d="M383.191 16.7275C382.854 11.2149 378.109 7.00652 372.607 7.48136C300.432 13.7098 231.234 39.4315 172.451 81.9833C113.668 124.535 67.6202 182.237 39.1607 248.856C36.991 253.935 39.5069 259.757 44.6384 261.799L211.882 328.353C217.014 330.395 222.806 327.878 225.102 322.855C239.444 291.478 261.687 264.288 289.726 243.992C317.764 223.695 350.541 211.057 384.828 207.233C390.317 206.621 394.517 201.904 394.18 196.392L383.191 16.7275Z" stroke="#8ED7D3" stroke-width="10" mask="url(#path-2-outside-1_5_16)"/>
</g>
<g filter="url(#filter1_f_5_16)">
<mask id="path-3-outside-2_5_16" maskUnits="userSpaceOnUse" x="2" y="303" width="279" height="412" fill="black">
<rect fill="white" x="2" y="303" width="279" height="412"/>
<path d="M29.4224 308.352C24.0755 306.969 18.6069 310.181 17.3581 315.561C0.978506 386.128 4.058 459.887 26.3622 528.943C48.6664 597.998 89.3151 659.623 143.879 707.276C148.038 710.909 154.353 710.315 157.88 706.066L272.859 567.574C276.387 563.325 275.783 557.038 271.715 553.302C246.305 529.966 227.32 500.409 216.681 467.471C206.043 434.534 204.151 399.455 211.11 365.664C212.223 360.255 209.036 354.803 203.689 353.42L29.4224 308.352Z"/>
</mask>
<path d="M29.4224 308.352C24.0755 306.969 18.6069 310.181 17.3581 315.561C0.978506 386.128 4.058 459.887 26.3622 528.943C48.6664 597.998 89.3151 659.623 143.879 707.276C148.038 710.909 154.353 710.315 157.88 706.066L272.859 567.574C276.387 563.325 275.783 557.038 271.715 553.302C246.305 529.966 227.32 500.409 216.681 467.471C206.043 434.534 204.151 399.455 211.11 365.664C212.223 360.255 209.036 354.803 203.689 353.42L29.4224 308.352Z" fill="#18DC3F"/>
<path d="M29.4224 308.352C24.0755 306.969 18.6069 310.181 17.3581 315.561C0.978506 386.128 4.058 459.887 26.3622 528.943C48.6664 597.998 89.3151 659.623 143.879 707.276C148.038 710.909 154.353 710.315 157.88 706.066L272.859 567.574C276.387 563.325 275.783 557.038 271.715 553.302C246.305 529.966 227.32 500.409 216.681 467.471C206.043 434.534 204.151 399.455 211.11 365.664C212.223 360.255 209.036 354.803 203.689 353.42L29.4224 308.352Z" fill="white"/>
<path d="M29.4224 308.352C24.0755 306.969 18.6069 310.181 17.3581 315.561C0.978506 386.128 4.058 459.887 26.3622 528.943C48.6664 597.998 89.3151 659.623 143.879 707.276C148.038 710.909 154.353 710.315 157.88 706.066L272.859 567.574C276.387 563.325 275.783 557.038 271.715 553.302C246.305 529.966 227.32 500.409 216.681 467.471C206.043 434.534 204.151 399.455 211.11 365.664C212.223 360.255 209.036 354.803 203.689 353.42L29.4224 308.352Z" stroke="#C0DEB8" stroke-width="10" mask="url(#path-3-outside-2_5_16)"/>
</g>
<g filter="url(#filter2_f_5_16)">
<mask id="path-4-outside-3_5_16" maskUnits="userSpaceOnUse" x="193" y="572" width="432" height="239" fill="black">
<rect fill="white" x="193" y="572" width="432" height="239"/>
<path d="M200.331 736.739C197.405 741.422 198.824 747.604 203.579 750.412C265.954 787.254 337.226 806.497 409.792 805.99C482.359 805.484 553.355 785.247 615.21 747.539C619.925 744.664 621.258 738.463 618.266 733.821L520.759 582.519C517.767 577.877 511.59 576.562 506.804 579.318C476.907 596.535 443.009 605.754 408.396 605.995C373.784 606.237 339.76 597.492 309.626 580.695C304.802 578.006 298.644 579.406 295.717 584.09L200.331 736.739Z"/>
</mask>
<path d="M200.331 736.739C197.405 741.422 198.824 747.604 203.579 750.412C265.954 787.254 337.226 806.497 409.792 805.99C482.359 805.484 553.355 785.247 615.21 747.539C619.925 744.664 621.258 738.463 618.266 733.821L520.759 582.519C517.767 577.877 511.59 576.562 506.804 579.318C476.907 596.535 443.009 605.754 408.396 605.995C373.784 606.237 339.76 597.492 309.626 580.695C304.802 578.006 298.644 579.406 295.717 584.09L200.331 736.739Z" fill="#18DC3F"/>
<path d="M200.331 736.739C197.405 741.422 198.824 747.604 203.579 750.412C265.954 787.254 337.226 806.497 409.792 805.99C482.359 805.484 553.355 785.247 615.21 747.539C619.925 744.664 621.258 738.463 618.266 733.821L520.759 582.519C517.767 577.877 511.59 576.562 506.804 579.318C476.907 596.535 443.009 605.754 408.396 605.995C373.784 606.237 339.76 597.492 309.626 580.695C304.802 578.006 298.644 579.406 295.717 584.09L200.331 736.739Z" fill="white"/>
<path d="M200.331 736.739C197.405 741.422 198.824 747.604 203.579 750.412C265.954 787.254 337.226 806.497 409.792 805.99C482.359 805.484 553.355 785.247 615.21 747.539C619.925 744.664 621.258 738.463 618.266 733.821L520.759 582.519C517.767 577.877 511.59 576.562 506.804 579.318C476.907 596.535 443.009 605.754 408.396 605.995C373.784 606.237 339.76 597.492 309.626 580.695C304.802 578.006 298.644 579.406 295.717 584.09L200.331 736.739Z" stroke="#FFC694" stroke-width="10" mask="url(#path-4-outside-3_5_16)"/>
</g>
<g filter="url(#filter3_f_5_16)">
<mask id="path-5-outside-4_5_16" maskUnits="userSpaceOnUse" x="534" y="301" width="278" height="413" fill="black">
<rect fill="white" x="534" y="301" width="278" height="413"/>
<path d="M657.687 704.757C661.237 708.988 667.555 709.549 671.695 705.894C726.008 657.956 766.334 596.119 788.276 526.948C810.219 457.777 812.912 384.002 796.163 313.522C794.886 308.149 789.401 304.965 784.061 306.376L610.033 352.356C604.693 353.767 601.534 359.236 602.677 364.639C609.812 398.393 608.104 433.481 597.638 466.474C587.172 499.467 568.342 529.123 543.054 552.592C539.006 556.349 538.435 562.639 541.985 566.869L657.687 704.757Z"/>
</mask>
<path d="M657.687 704.757C661.237 708.988 667.555 709.549 671.695 705.894C726.008 657.956 766.334 596.119 788.276 526.948C810.219 457.777 812.912 384.002 796.163 313.522C794.886 308.149 789.401 304.965 784.061 306.376L610.033 352.356C604.693 353.767 601.534 359.236 602.677 364.639C609.812 398.393 608.104 433.481 597.638 466.474C587.172 499.467 568.342 529.123 543.054 552.592C539.006 556.349 538.435 562.639 541.985 566.869L657.687 704.757Z" fill="white"/>
<path d="M657.687 704.757C661.237 708.988 667.555 709.549 671.695 705.894C726.008 657.956 766.334 596.119 788.276 526.948C810.219 457.777 812.912 384.002 796.163 313.522C794.886 308.149 789.401 304.965 784.061 306.376L610.033 352.356C604.693 353.767 601.534 359.236 602.677 364.639C609.812 398.393 608.104 433.481 597.638 466.474C587.172 499.467 568.342 529.123 543.054 552.592C539.006 556.349 538.435 562.639 541.985 566.869L657.687 704.757Z" stroke="#BFDBF5" stroke-width="10" mask="url(#path-5-outside-4_5_16)"/>
</g>
<g filter="url(#filter4_f_5_16)">
<mask id="path-6-outside-5_5_16" maskUnits="userSpaceOnUse" x="414" y="2.00003" width="367" height="333" fill="black">
<rect fill="white" x="414" y="2.00003" width="367" height="333"/>
<path d="M430.809 16.7275C431.146 11.2149 435.891 7.00652 441.393 7.48136C513.568 13.7098 582.766 39.4316 641.549 81.9834C700.332 124.535 746.38 182.238 774.839 248.856C777.009 253.935 774.493 259.757 769.362 261.799L602.118 328.353C596.986 330.395 591.194 327.878 588.898 322.855C574.556 291.478 552.313 264.288 524.274 243.992C496.236 223.696 463.459 211.057 429.172 207.233C423.683 206.621 419.483 201.904 419.82 196.392L430.809 16.7275Z"/>
</mask>
<path d="M430.809 16.7275C431.146 11.2149 435.891 7.00652 441.393 7.48136C513.568 13.7098 582.766 39.4316 641.549 81.9834C700.332 124.535 746.38 182.238 774.839 248.856C777.009 253.935 774.493 259.757 769.362 261.799L602.118 328.353C596.986 330.395 591.194 327.878 588.898 322.855C574.556 291.478 552.313 264.288 524.274 243.992C496.236 223.696 463.459 211.057 429.172 207.233C423.683 206.621 419.483 201.904 419.82 196.392L430.809 16.7275Z" fill="white"/>
<path d="M430.809 16.7275C431.146 11.2149 435.891 7.00652 441.393 7.48136C513.568 13.7098 582.766 39.4316 641.549 81.9834C700.332 124.535 746.38 182.238 774.839 248.856C777.009 253.935 774.493 259.757 769.362 261.799L602.118 328.353C596.986 330.395 591.194 327.878 588.898 322.855C574.556 291.478 552.313 264.288 524.274 243.992C496.236 223.696 463.459 211.057 429.172 207.233C423.683 206.621 419.483 201.904 419.82 196.392L430.809 16.7275Z" stroke="#F1A8A8" stroke-width="10" mask="url(#path-6-outside-5_5_16)"/>
</g>
<defs>
<filter id="filter0_f_5_16" x="31.3749" y="0.444122" width="369.824" height="335.626" filterUnits="userSpaceOnUse" color-interpolation-filters="sRGB">
<feFlood flood-opacity="0" result="BackgroundImageFix"/>
<feBlend mode="normal" in="SourceGraphic" in2="BackgroundImageFix" result="shape"/>
<feGaussianBlur stdDeviation="1" result="effect1_foregroundBlur_5_16"/>
</filter>
<filter id="filter1_f_5_16" x="-3.05176e-05" y="301.032" width="282.175" height="415.635" filterUnits="userSpaceOnUse" color-interpolation-filters="sRGB">
<feFlood flood-opacity="0" result="BackgroundImageFix"/>
<feBlend mode="normal" in="SourceGraphic" in2="BackgroundImageFix" result="shape"/>
<feGaussianBlur stdDeviation="1" result="effect1_foregroundBlur_5_16"/>
</filter>
<filter id="filter2_f_5_16" x="191.814" y="570.892" width="435.044" height="242.108" filterUnits="userSpaceOnUse" color-interpolation-filters="sRGB">
<feFlood flood-opacity="0" result="BackgroundImageFix"/>
<feBlend mode="normal" in="SourceGraphic" in2="BackgroundImageFix" result="shape"/>
<feGaussianBlur stdDeviation="1" result="effect1_foregroundBlur_5_16"/>
</filter>
<filter id="filter3_f_5_16" x="532.636" y="299.043" width="281.364" height="416.275" filterUnits="userSpaceOnUse" color-interpolation-filters="sRGB">
<feFlood flood-opacity="0" result="BackgroundImageFix"/>
<feBlend mode="normal" in="SourceGraphic" in2="BackgroundImageFix" result="shape"/>
<feGaussianBlur stdDeviation="1" result="effect1_foregroundBlur_5_16"/>
</filter>
<filter id="filter4_f_5_16" x="412.801" y="0.444122" width="369.824" height="335.626" filterUnits="userSpaceOnUse" color-interpolation-filters="sRGB">
<feFlood flood-opacity="0" result="BackgroundImageFix"/>
<feBlend mode="normal" in="SourceGraphic" in2="BackgroundImageFix" result="shape"/>
<feGaussianBlur stdDeviation="1" result="effect1_foregroundBlur_5_16"/>
</filter>
</defs>
</svg>
