<svg width="802" height="801" viewBox="0 0 802 801" fill="none" xmlns="http://www.w3.org/2000/svg">
<rect width="802" height="801" fill="#F5F5F5"/>
<g id="Desktop - 1">
<rect width="801" height="801" transform="translate(1)" fill="white"/>
<g id="container_overview">
<path id="fig_features" d="M376.581 0.746084C300.818 5.37995 227.937 31.475 166.451 75.9833C104.965 120.492 57.4126 181.576 29.3471 252.101L215.174 326.051C229.206 290.788 252.983 260.246 283.726 237.992C314.468 215.737 350.909 202.69 388.79 200.373L376.581 0.746084Z" fill="url(#paint0_linear_0_1)" stroke="black"/>
<path id="fig_dev" d="M13.741 299.848C-5.26404 373.335 -2.96754 450.712 20.3622 522.943C43.692 595.173 87.0919 659.274 145.493 707.76L273.246 553.88C244.046 529.637 222.346 497.586 210.681 461.471C199.016 425.356 197.868 386.667 207.37 349.924L13.741 299.848Z" fill="url(#paint1_linear_0_1)" stroke="black"/>
<path id="fig_data" d="M189.032 739.219C253.403 779.443 327.89 800.52 403.792 799.99C479.695 799.46 553.88 777.345 617.683 736.227L509.342 568.113C477.44 588.672 440.348 599.73 402.396 599.995C364.445 600.26 327.201 589.721 295.016 569.61L189.032 739.219Z" fill="url(#paint2_linear_0_1)" stroke="black"/>
<path id="fig_quality" d="M658.115 706.418C716.261 657.627 759.325 593.299 782.276 520.948C805.228 448.596 807.119 371.208 787.729 297.822L594.365 348.911C604.059 385.604 603.114 424.298 591.638 460.474C580.163 496.65 558.631 528.814 529.558 553.209L658.115 706.418Z" fill="url(#paint3_linear_0_1)" stroke="black"/>
<path id="fig_litterature" d="M425.419 0.746084C501.182 5.37996 574.063 31.475 635.549 75.9834C697.035 120.492 744.588 181.576 772.653 252.101L586.827 326.051C572.794 290.788 549.017 260.246 518.274 237.992C487.532 215.738 451.091 202.69 413.21 200.373L425.419 0.746084Z" fill="url(#paint4_linear_0_1)" stroke="black"/>
<g id="Group 1">
<rect id="Rectangle 1" x="318" y="291" width="180" height="180" rx="5" fill="#56C7EA"/>
<circle id="Ellipse 1" cx="303" cy="381" r="30" fill="#56C7EA"/>
<circle id="Ellipse 2" cx="408" cy="276" r="30" fill="#56C7EA"/>
<circle id="Ellipse 3" cx="479" cy="381" r="30" fill="white"/>
<circle id="Ellipse 4" cx="408" cy="454" r="30" fill="white"/>
</g>
<path id="EBIA-CT" d="M328.54 515V489.24H346.5V492.64H332.9V500.44H345.02V503.8H332.9V511.64H346.5V515H328.54ZM350.532 515V489.24H363.012C365.572 489.24 367.465 489.84 368.692 491.04C369.918 492.24 370.532 493.933 370.532 496.12C370.532 497.507 370.252 498.68 369.692 499.64C369.132 500.573 368.385 501.28 367.452 501.76C368.705 502.107 369.692 502.733 370.412 503.64C371.158 504.52 371.532 505.827 371.532 507.56C371.532 510.067 370.852 511.933 369.492 513.16C368.158 514.387 366.185 515 363.572 515H350.532ZM354.892 500.24H362.412C363.878 500.24 364.918 499.907 365.532 499.24C366.172 498.547 366.492 497.627 366.492 496.48C366.492 495.147 366.172 494.16 365.532 493.52C364.892 492.853 363.692 492.52 361.932 492.52H354.892V500.24ZM354.892 511.8H362.652C364.198 511.8 365.332 511.48 366.052 510.84C366.772 510.173 367.132 509.027 367.132 507.4C367.132 506.067 366.772 505.08 366.052 504.44C365.358 503.773 364.078 503.44 362.212 503.44H354.892V511.8ZM375.766 515V489.24H380.126V515H375.766ZM384.42 515L394.26 489.24H399.14L408.9 515H404.42L401.86 508.36H391.5L388.94 515H384.42ZM392.18 505H401.14L396.66 493.2L392.18 505ZM412.388 505.92V502.52H427.668V505.92H412.388ZM443.979 515.4C439.739 515.4 436.526 514.24 434.339 511.92C432.179 509.6 431.099 506.467 431.099 502.52C431.099 499.693 431.552 497.267 432.459 495.24C433.392 493.187 434.806 491.613 436.699 490.52C438.592 489.4 441.006 488.84 443.939 488.84C445.432 488.84 446.792 488.96 448.019 489.2C449.272 489.413 450.432 489.707 451.499 490.08V493.88C450.432 493.453 449.286 493.133 448.059 492.92C446.859 492.68 445.592 492.56 444.259 492.56C441.059 492.56 438.792 493.413 437.459 495.12C436.152 496.827 435.499 499.293 435.499 502.52C435.499 505.533 436.219 507.827 437.659 509.4C439.099 510.947 441.326 511.72 444.339 511.72C445.566 511.72 446.792 511.627 448.019 511.44C449.272 511.227 450.446 510.907 451.539 510.48V514.32C450.472 514.667 449.312 514.933 448.059 515.12C446.832 515.307 445.472 515.4 443.979 515.4ZM462.446 515V492.64H454.206V489.24H475.006V492.64H466.806V515H462.446Z" fill="#4D4D4D"/>
<path id="text_litterature" d="M533.704 96.3379L532.161 98.1764L519.537 87.5832L537.535 66.134L539.741 67.9852L523.286 87.596L533.704 96.3379ZM550.124 84.5295L552.207 86.2779L538.066 103.131L535.982 101.382L550.124 84.5295ZM553.64 82.206C552.72 81.4347 552.647 80.5894 553.418 79.6701L553.649 79.3944C554.421 78.4751 555.266 78.4012 556.185 79.1725L556.43 79.3782C557.35 80.1495 557.424 80.9948 556.652 81.9141L556.421 82.1899C555.649 83.1091 554.804 83.1831 553.885 82.4117L553.64 82.206ZM553.641 112.702C553.699 112.924 553.682 113.171 553.593 113.444C553.541 113.714 553.429 113.951 553.257 114.155C552.932 114.543 552.537 114.682 552.073 114.571C551.145 114.349 550.16 113.801 549.118 112.927C547.79 111.813 547.028 110.564 546.831 109.181C546.652 107.777 547.076 106.462 548.105 105.236L557.747 93.7456L554.56 91.0716L555.948 89.4169L559.135 92.0909L562.992 87.4946L565.075 89.243L561.219 93.8393L565.631 97.5417L564.243 99.1964L559.83 95.4939L550.523 106.586C549.083 108.302 549.098 109.777 550.569 111.011C551.509 111.8 552.533 112.363 553.641 112.702ZM565.102 122.318C565.159 122.541 565.143 122.788 565.053 123.061C565.001 123.33 564.89 123.567 564.718 123.772C564.392 124.16 563.998 124.298 563.534 124.188C562.606 123.966 561.621 123.418 560.579 122.544C559.251 121.43 558.489 120.181 558.292 118.797C558.113 117.393 558.537 116.079 559.565 114.853L569.207 103.362L566.021 100.688L567.409 99.0336L570.596 101.708L574.452 97.1113L576.536 98.8597L572.679 103.456L577.092 107.158L575.703 108.813L571.291 105.111L561.983 116.203C560.543 117.919 560.559 119.394 562.03 120.628C562.969 121.417 563.994 121.98 565.102 122.318ZM588.368 128.943C587.974 129.413 587.559 129.866 587.124 130.301L574.928 120.068C573.187 122.227 572.268 124.276 572.173 126.215C572.098 128.171 572.867 129.826 574.481 131.18C575.584 132.106 576.693 132.671 577.809 132.877C578.945 133.099 580.163 132.955 581.462 132.443C581.828 132.298 582.154 132.345 582.44 132.585C582.767 132.859 583.054 133.43 583.3 134.298C581.736 135.249 580.026 135.607 578.17 135.372C576.33 135.116 574.603 134.312 572.99 132.958C571.498 131.706 570.482 130.262 569.942 128.625C569.439 126.984 569.439 125.261 569.944 123.457C570.466 121.632 571.481 119.821 572.989 118.023C575.269 115.306 577.726 113.747 580.359 113.347C583.01 112.925 585.511 113.7 587.86 115.672C590.005 117.471 591.123 119.541 591.214 121.88C591.305 124.219 590.356 126.574 588.368 128.943ZM586.429 126.898C589.514 123.221 589.463 120.046 586.277 117.372C584.724 116.069 583.104 115.51 581.417 115.696C579.729 115.881 578.05 116.804 576.378 118.465L586.429 126.898ZM605.205 130.382C605.92 130.982 606.358 131.559 606.52 132.113C606.72 132.663 606.622 133.173 606.228 133.643C605.954 133.97 605.593 134.172 605.145 134.249C604.878 133.572 604.315 132.874 603.457 132.154C602.089 131.005 600.531 130.621 598.785 131.001C597.06 131.398 595.46 132.475 593.986 134.232L586.195 143.516L584.111 141.768L598.253 124.915L600.336 126.663L597.791 129.697C599.049 129.151 600.365 128.932 601.737 129.039C603.109 129.146 604.265 129.594 605.205 130.382ZM611.884 157.918C611.095 158.857 610.541 159.663 610.221 160.334C609.939 161.003 609.812 161.714 609.84 162.469C609.464 162.502 609.082 162.459 608.693 162.342C608.325 162.242 608.018 162.089 607.773 161.883C607.364 161.54 607.214 161.014 607.322 160.304C607.451 159.611 607.817 158.822 608.421 157.937C607.068 158.263 605.646 158.236 604.155 157.855C602.682 157.454 601.363 156.765 600.198 155.788C598.646 154.486 597.734 153.042 597.463 151.456C597.209 149.851 597.63 148.394 598.727 147.087C600.339 145.167 602.528 144.445 605.295 144.922C608.083 145.417 611.333 147.082 615.045 149.918L615.868 148.938C616.999 147.589 617.492 146.297 617.346 145.061C617.237 143.821 616.488 142.618 615.099 141.453C614.201 140.698 613.2 140.19 612.098 139.926C611.034 139.66 609.694 139.597 608.078 139.739C607.853 139.758 607.648 139.691 607.465 139.537C607.26 139.365 607.104 139.095 606.996 138.726C606.905 138.337 606.885 137.884 606.934 137.369C608.762 137.057 610.498 137.104 612.142 137.509C613.807 137.931 615.303 138.7 616.631 139.814C618.531 141.408 619.594 143.17 619.819 145.1C620.065 147.047 619.443 148.909 617.951 150.686L611.884 157.918ZM601.791 154.201C602.895 155.127 604.193 155.694 605.688 155.904C607.183 156.114 608.759 155.957 610.417 155.434L613.605 151.634C607.516 146.943 603.281 146.017 600.898 148.856C599.39 150.654 599.687 152.435 601.791 154.201ZM623.064 170.954C623.121 171.176 623.105 171.424 623.015 171.697C622.963 171.966 622.852 172.203 622.68 172.408C622.355 172.796 621.96 172.934 621.496 172.823C620.568 172.602 619.583 172.054 618.541 171.18C617.213 170.066 616.451 168.817 616.254 167.433C616.075 166.029 616.499 164.715 617.527 163.489L627.169 151.998L623.983 149.324L625.371 147.67L628.558 150.344L632.414 145.747L634.498 147.496L630.641 152.092L635.054 155.794L633.665 157.449L629.253 153.747L619.945 164.839C618.506 166.555 618.521 168.03 619.992 169.264C620.931 170.053 621.956 170.616 623.064 170.954ZM641.07 183.661C640.076 184.846 639.32 186.057 638.804 187.295C638.169 187.18 637.627 186.934 637.178 186.557C636.749 186.197 636.578 185.758 636.665 185.239C636.79 184.717 637.236 183.977 638.004 183.021C636.764 183.337 635.417 183.304 633.964 182.92C632.528 182.516 631.207 181.808 630.002 180.796C626.549 177.9 626.409 174.562 629.58 170.782L639.222 159.292L641.305 161.04L631.844 172.316C630.592 173.808 629.96 175.122 629.945 176.259C629.949 177.375 630.553 178.439 631.758 179.45C632.841 180.359 634.083 180.931 635.486 181.168C636.909 181.422 638.357 181.315 639.83 180.845L650.192 168.496L652.306 170.271L641.07 183.661ZM664.723 180.324C665.438 180.924 665.876 181.501 666.038 182.054C666.238 182.605 666.14 183.115 665.746 183.585C665.472 183.912 665.111 184.114 664.663 184.191C664.396 183.514 663.833 182.815 662.975 182.095C661.607 180.947 660.049 180.562 658.303 180.942C656.578 181.339 654.978 182.416 653.504 184.173L645.713 193.458L643.629 191.709L657.771 174.856L659.854 176.605L657.309 179.638C658.567 179.093 659.883 178.874 661.255 178.981C662.627 179.088 663.783 179.536 664.723 180.324ZM677.301 203.567C676.907 204.037 676.492 204.489 676.057 204.925L663.861 194.692C662.12 196.851 661.201 198.899 661.106 200.838C661.031 202.795 661.8 204.45 663.414 205.804C664.517 206.73 665.626 207.295 666.742 207.5C667.878 207.723 669.096 207.578 670.395 207.067C670.761 206.921 671.087 206.969 671.373 207.209C671.7 207.483 671.986 208.054 672.233 208.922C670.669 209.873 668.959 210.231 667.103 209.996C665.263 209.74 663.536 208.935 661.923 207.581C660.431 206.33 659.415 204.886 658.875 203.248C658.372 201.608 658.372 199.885 658.877 198.081C659.399 196.256 660.414 194.444 661.922 192.647C664.202 189.93 666.659 188.371 669.292 187.97C671.943 187.549 674.443 188.324 676.793 190.295C678.938 192.095 680.056 194.165 680.147 196.504C680.238 198.843 679.289 201.197 677.301 203.567ZM675.362 201.522C678.447 197.845 678.396 194.669 675.209 191.995C673.657 190.693 672.037 190.134 670.35 190.32C668.662 190.505 666.983 191.428 665.311 193.089L675.362 201.522ZM526.434 146.109C525.515 145.338 524.693 144.387 523.97 143.258C523.247 142.129 522.772 141.035 522.547 139.976C522.322 138.916 522.449 138.101 522.929 137.529C523.152 137.263 523.431 137.097 523.766 137.03C524.138 136.959 524.491 136.995 524.826 137.136C524.755 138.713 524.961 140.086 525.441 141.256C525.94 142.404 526.791 143.485 527.996 144.496C529.283 145.576 530.502 146.094 531.653 146.05C532.824 146.023 533.821 145.519 534.644 144.539C535.192 143.885 535.434 143.183 535.368 142.431C535.323 141.697 535.09 140.979 534.669 140.278C534.268 139.594 533.669 138.69 532.87 137.568C531.942 136.267 531.231 135.165 530.735 134.262C530.26 133.376 530.007 132.433 529.977 131.432C529.983 130.429 530.398 129.437 531.221 128.456C532.095 127.414 533.108 126.767 534.26 126.515C535.411 126.263 536.561 126.323 537.711 126.696C538.86 127.068 539.884 127.632 540.783 128.386C542.07 129.466 543.02 130.698 543.633 132.083C544.267 133.485 544.469 134.925 544.239 136.403C543.32 136.502 542.687 136.406 542.339 136.115C542.074 135.892 541.938 135.534 541.933 135.043C541.923 134.059 541.702 133.161 541.272 132.347C540.878 131.529 540.222 130.735 539.303 129.964C538.261 129.089 537.228 128.64 536.204 128.616C535.179 128.592 534.239 129.091 533.382 130.112C532.885 130.705 532.666 131.339 532.725 132.015C532.784 132.692 533.004 133.363 533.384 134.03C533.781 134.677 534.357 135.526 535.111 136.577C536.097 137.891 536.839 139.019 537.338 139.959C537.857 140.917 538.108 141.946 538.091 143.045C538.09 144.124 537.636 145.205 536.728 146.287C535.459 147.799 533.886 148.533 532.008 148.489C530.151 148.462 528.293 147.669 526.434 146.109ZM558.063 155.731C557.669 156.201 557.254 156.653 556.819 157.089L544.624 146.856C542.882 149.014 541.963 151.063 541.868 153.002C541.793 154.959 542.562 156.614 544.176 157.968C545.279 158.893 546.389 159.459 547.504 159.664C548.641 159.886 549.858 159.742 551.158 159.231C551.523 159.085 551.849 159.133 552.135 159.373C552.462 159.647 552.749 160.218 552.995 161.086C551.431 162.037 549.721 162.395 547.865 162.16C546.025 161.904 544.299 161.099 542.685 159.745C541.194 158.494 540.178 157.049 539.637 155.412C539.134 153.772 539.134 152.049 539.639 150.245C540.161 148.42 541.176 146.608 542.684 144.811C544.964 142.094 547.421 140.535 550.055 140.134C552.706 139.713 555.206 140.488 557.555 142.459C559.7 144.259 560.818 146.329 560.909 148.668C561 151.007 560.051 153.361 558.063 155.731ZM556.124 153.686C559.209 150.009 559.158 146.833 555.972 144.159C554.419 142.857 552.799 142.298 551.112 142.483C549.425 142.669 547.745 143.592 546.073 145.252L556.124 153.686ZM569.31 174.41C568.522 175.35 567.967 176.156 567.648 176.827C567.365 177.496 567.238 178.207 567.267 178.962C566.891 178.995 566.509 178.952 566.12 178.835C565.751 178.735 565.445 178.582 565.199 178.376C564.791 178.033 564.641 177.507 564.749 176.797C564.878 176.104 565.244 175.315 565.848 174.429C564.495 174.756 563.073 174.729 561.582 174.348C560.108 173.947 558.789 173.258 557.625 172.281C556.072 170.979 555.161 169.535 554.889 167.949C554.635 166.344 555.057 164.887 556.154 163.58C557.765 161.66 559.954 160.938 562.722 161.415C565.51 161.91 568.76 163.575 572.472 166.411L573.294 165.431C574.426 164.082 574.918 162.79 574.772 161.554C574.664 160.314 573.915 159.111 572.526 157.946C571.627 157.191 570.627 156.683 569.525 156.419C568.46 156.153 567.12 156.09 565.505 156.232C565.28 156.251 565.075 156.184 564.891 156.03C564.687 155.858 564.531 155.588 564.423 155.219C564.332 154.829 564.311 154.377 564.361 153.862C566.188 153.55 567.924 153.597 569.569 154.002C571.234 154.424 572.73 155.193 574.058 156.307C575.957 157.901 577.02 159.663 577.246 161.593C577.492 163.54 576.869 165.402 575.378 167.179L569.31 174.41ZM559.218 170.694C560.321 171.619 561.62 172.187 563.115 172.397C564.61 172.607 566.186 172.45 567.844 171.927L571.032 168.127C564.943 163.436 560.707 162.51 558.324 165.349C556.816 167.147 557.114 168.928 559.218 170.694ZM591.986 171.507C592.701 172.107 593.14 172.684 593.302 173.238C593.501 173.788 593.404 174.298 593.01 174.768C592.735 175.095 592.375 175.297 591.927 175.374C591.66 174.697 591.097 173.998 590.239 173.278C588.87 172.13 587.313 171.746 585.567 172.126C583.841 172.523 582.241 173.599 580.767 175.356L572.977 184.641L570.893 182.892L585.034 166.039L587.118 167.788L584.573 170.821C585.831 170.276 587.146 170.057 588.518 170.164C589.891 170.271 591.047 170.719 591.986 171.507ZM589.37 198.919C586.898 196.845 585.619 194.448 585.533 191.73C585.467 189.029 586.599 186.29 588.931 183.512C590.405 181.755 591.988 180.49 593.681 179.717C595.411 178.941 597.15 178.695 598.897 178.977C600.661 179.239 602.33 180.03 603.903 181.35C605.782 182.927 606.922 184.701 607.321 186.673C607.759 188.641 607.394 190.528 606.227 192.333C605.974 192.261 605.65 192.128 605.255 191.936C604.88 191.76 604.59 191.587 604.386 191.415C604.182 191.244 604.071 191.064 604.055 190.876C604.076 190.685 604.19 190.363 604.396 189.91C604.977 188.761 605.092 187.587 604.741 186.387C604.407 185.167 603.648 184.06 602.463 183.066C601.36 182.14 600.14 181.603 598.802 181.456C597.484 181.325 596.145 181.593 594.784 182.261C593.46 182.926 592.224 183.943 591.076 185.311C589.259 187.477 588.321 189.631 588.262 191.775C588.224 193.937 589.073 195.746 590.81 197.203C592.138 198.317 593.529 198.962 594.982 199.137C596.453 199.293 597.93 198.965 599.411 198.154C599.697 198.394 599.829 198.713 599.807 199.113C599.806 199.529 599.668 199.901 599.393 200.228C598.794 200.943 597.913 201.37 596.752 201.509C595.628 201.646 594.392 201.479 593.045 201.01C591.719 200.559 590.494 199.861 589.37 198.919ZM622.649 197.08C624.406 198.554 625.366 200.23 625.531 202.109C625.712 203.967 625.075 205.764 623.618 207.5L613.95 219.021L611.866 217.273L621.354 205.966C622.468 204.638 622.998 203.343 622.945 202.079C622.891 200.816 622.251 199.67 621.025 198.641C620.086 197.853 618.915 197.236 617.513 196.791C616.129 196.325 614.736 196.097 613.336 196.106L602.306 209.251L600.222 207.503L620.56 183.265L622.644 185.013L615.008 194.114C616.455 194.215 617.835 194.52 619.148 195.029C620.461 195.539 621.628 196.223 622.649 197.08Z" fill="white"/>
<path id="text_features" d="M147.809 174.206L153.755 182.096L163.243 174.947L164.687 176.863L155.199 184.013L163.215 194.651L160.915 196.384L144.065 174.022L157.226 164.104L158.67 166.021L147.809 174.206ZM184.161 163.141C184.53 163.63 184.878 164.136 185.204 164.658L172.49 174.239C174.201 176.422 175.991 177.778 177.859 178.307C179.748 178.82 181.534 178.443 183.217 177.175C184.367 176.308 185.167 175.354 185.618 174.313C186.09 173.256 186.224 172.037 186.018 170.656C185.958 170.267 186.077 169.96 186.376 169.736C186.716 169.479 187.337 169.328 188.239 169.283C188.813 171.021 188.777 172.767 188.131 174.524C187.468 176.258 186.295 177.76 184.613 179.028C183.058 180.199 181.422 180.864 179.705 181.023C177.994 181.144 176.315 180.756 174.671 179.858C173.01 178.939 171.473 177.543 170.061 175.669C167.927 172.836 166.96 170.092 167.162 167.435C167.348 164.757 168.666 162.496 171.115 160.65C173.351 158.965 175.619 158.341 177.919 158.779C180.218 159.216 182.299 160.67 184.161 163.141ZM181.732 164.57C178.843 160.737 175.738 160.072 172.415 162.575C170.797 163.795 169.888 165.248 169.689 166.933C169.49 168.619 170.012 170.463 171.254 172.466L181.732 164.57ZM204.892 156.384C205.63 157.363 206.29 158.085 206.873 158.547C207.46 158.973 208.125 159.256 208.866 159.399C208.814 159.772 208.687 160.135 208.485 160.488C208.304 160.824 208.086 161.089 207.831 161.281C207.405 161.602 206.858 161.63 206.191 161.365C205.545 161.084 204.858 160.549 204.131 159.762C204.145 161.154 203.799 162.533 203.093 163.9C202.37 165.246 201.402 166.376 200.188 167.291C198.57 168.51 196.958 169.074 195.352 168.981C193.731 168.868 192.406 168.13 191.379 166.767C189.871 164.765 189.66 162.469 190.748 159.88C191.856 157.275 194.21 154.483 197.809 151.504L197.038 150.482C195.979 149.076 194.831 148.305 193.593 148.169C192.361 147.996 191.02 148.455 189.572 149.547C188.635 150.253 187.914 151.113 187.41 152.127C186.911 153.105 186.548 154.396 186.323 156.002C186.291 156.226 186.18 156.41 185.988 156.555C185.775 156.715 185.477 156.807 185.093 156.829C184.693 156.83 184.247 156.748 183.756 156.584C183.864 154.733 184.3 153.052 185.065 151.541C185.85 150.014 186.936 148.729 188.32 147.685C190.3 146.193 192.256 145.554 194.187 145.768C196.14 145.966 197.814 146.992 199.21 148.845L204.892 156.384ZM199 165.381C200.15 164.515 200.995 163.377 201.536 161.967C202.077 160.558 202.279 158.987 202.142 157.254L199.157 153.293C193.216 158.17 191.361 162.089 193.591 165.049C195.004 166.924 196.806 167.034 199 165.381ZM220.109 148.422C220.339 148.417 220.576 148.488 220.822 148.637C221.073 148.748 221.278 148.91 221.439 149.123C221.744 149.528 221.79 149.944 221.578 150.371C221.153 151.225 220.398 152.062 219.311 152.88C217.927 153.923 216.539 154.385 215.147 154.266C213.738 154.125 212.553 153.416 211.59 152.138L202.563 140.158L199.24 142.662L197.94 140.937L201.263 138.433L197.652 133.641L199.824 132.004L203.435 136.796L208.035 133.33L209.335 135.055L204.735 138.521L213.449 150.086C214.797 151.874 216.238 152.191 217.771 151.036C218.751 150.297 219.53 149.426 220.109 148.422ZM236.541 133.736C237.472 134.972 238.482 135.98 239.572 136.762C239.317 137.354 238.955 137.827 238.487 138.18C238.04 138.517 237.573 138.585 237.087 138.383C236.607 138.144 235.987 137.543 235.227 136.579C235.257 137.859 234.921 139.164 234.22 140.494C233.503 141.802 232.516 142.93 231.26 143.877C227.661 146.589 224.377 145.975 221.408 142.035L212.38 130.055L214.553 128.418L223.411 140.174C224.583 141.729 225.721 142.641 226.826 142.911C227.914 143.159 229.087 142.809 230.343 141.863C231.472 141.012 232.31 139.93 232.856 138.617C233.424 137.288 233.644 135.852 233.518 134.311L223.817 121.437L226.021 119.776L236.541 133.736ZM238.61 109.939C239.355 109.378 240.016 109.08 240.592 109.047C241.173 108.976 241.648 109.186 242.017 109.676C242.274 110.016 242.39 110.413 242.364 110.867C241.644 110.975 240.837 111.366 239.943 112.04C238.516 113.116 237.791 114.547 237.769 116.333C237.767 118.104 238.457 119.905 239.837 121.737L247.131 131.416L244.958 133.053L231.719 115.483L233.891 113.846L236.274 117.009C236.026 115.66 236.108 114.329 236.521 113.016C236.934 111.703 237.63 110.678 238.61 109.939ZM264.087 102.912C264.456 103.402 264.804 103.908 265.13 104.43L252.416 114.011C254.127 116.193 255.917 117.549 257.785 118.078C259.674 118.591 261.46 118.214 263.142 116.946C264.293 116.08 265.093 115.126 265.544 114.085C266.016 113.028 266.149 111.809 265.944 110.428C265.884 110.039 266.003 109.732 266.302 109.507C266.642 109.25 267.263 109.1 268.165 109.055C268.739 110.792 268.703 112.539 268.056 114.295C267.394 116.03 266.221 117.531 264.539 118.799C262.984 119.971 261.348 120.636 259.631 120.794C257.919 120.915 256.241 120.527 254.597 119.63C252.936 118.711 251.399 117.314 249.987 115.44C247.853 112.608 246.886 109.863 247.088 107.207C247.274 104.529 248.592 102.267 251.041 100.422C253.277 98.7366 255.545 98.1128 257.845 98.5502C260.144 98.9877 262.225 100.442 264.087 102.912ZM261.658 104.342C258.769 100.508 255.664 99.8432 252.341 102.347C250.723 103.566 249.814 105.019 249.615 106.705C249.416 108.391 249.938 110.235 251.18 112.237L261.658 104.342ZM280.977 106.412C280.018 107.134 278.908 107.721 277.645 108.172C276.382 108.622 275.209 108.838 274.126 108.82C273.044 108.801 272.278 108.493 271.828 107.897C271.62 107.62 271.52 107.311 271.53 106.969C271.545 106.591 271.659 106.255 271.872 105.961C273.393 106.384 274.777 106.493 276.025 106.287C277.256 106.06 278.5 105.474 279.757 104.527C281.098 103.516 281.877 102.445 282.093 101.313C282.331 100.166 282.064 99.0815 281.294 98.0593C280.78 97.3778 280.15 96.9845 279.403 96.8796C278.678 96.7586 277.926 96.8243 277.148 97.0767C276.391 97.3131 275.376 97.6941 274.102 98.2196C272.626 98.831 271.393 99.2764 270.401 99.556C269.431 99.8196 268.455 99.8538 267.473 99.6587C266.497 99.4262 265.624 98.7989 264.853 97.7766C264.035 96.6905 263.632 95.5581 263.645 94.3794C263.659 93.2007 263.976 92.0933 264.598 91.0572C265.22 90.0211 265.999 89.15 266.936 88.4439C268.278 87.4328 269.692 86.7843 271.18 86.4982C272.688 86.1961 274.137 86.3235 275.524 86.8804C275.415 87.7979 275.179 88.3931 274.817 88.666C274.54 88.8746 274.161 88.9261 273.681 88.8205C272.72 88.6094 271.795 88.6222 270.905 88.8589C270.02 89.0582 269.098 89.519 268.14 90.2411C267.054 91.0596 266.384 91.9651 266.13 92.9577C265.877 93.9503 266.151 94.979 266.953 96.0438C267.419 96.6615 267.987 97.0175 268.66 97.112C269.332 97.2064 270.036 97.1435 270.771 96.9232C271.491 96.6815 272.447 96.3114 273.641 95.8127C275.143 95.1479 276.409 94.6784 277.438 94.404C278.488 94.1136 279.546 94.1006 280.613 94.3648C281.665 94.6078 282.616 95.2936 283.466 96.4224C284.654 97.9983 285.015 99.6962 284.55 101.516C284.106 103.32 282.915 104.952 280.977 106.412ZM137.855 236.3L140.027 234.663L153.267 252.233L151.095 253.87L137.855 236.3ZM136.382 232.351C135.424 233.073 134.584 232.955 133.861 231.997L133.645 231.709C132.923 230.751 133.041 229.91 133.999 229.188L134.255 228.996C135.213 228.274 136.053 228.392 136.775 229.35L136.992 229.637C137.714 230.596 137.596 231.436 136.638 232.158L136.382 232.351ZM164.419 215.781C165.931 214.642 167.525 214.209 169.2 214.482C170.897 214.74 172.331 215.646 173.503 217.2L183.011 229.819L180.807 231.48L171.371 218.957C170.44 217.722 169.473 217.015 168.47 216.836C167.467 216.657 166.401 216.993 165.272 217.843C163.462 219.207 162.405 221.306 162.102 224.138C162.402 224.447 162.616 224.687 162.744 224.857L172.469 237.763L170.297 239.4L160.62 226.558C159.866 225.557 158.955 224.991 157.888 224.86C156.826 224.692 155.795 224.985 154.794 225.739C153.878 226.429 153.157 227.289 152.632 228.32C152.127 229.334 151.797 230.602 151.64 232.122L161.895 245.731L159.723 247.368L150.985 235.772C148.61 232.62 147.07 230.842 146.365 230.438C146.805 229.605 147.228 229.036 147.633 228.731C148.25 228.266 149.025 228.651 149.955 229.886L150.052 230.014C150.283 228.637 150.697 227.458 151.292 226.475C151.908 225.476 152.77 224.56 153.877 223.725C154.878 222.971 155.949 222.531 157.09 222.406C158.215 222.259 159.288 222.419 160.308 222.886C160.549 221.302 160.986 219.954 161.618 218.843C162.272 217.717 163.205 216.696 164.419 215.781ZM182.919 201.84C185.305 200.043 187.719 199.459 190.163 200.088C192.591 200.696 194.905 202.459 197.103 205.376C198.5 207.229 199.389 209.096 199.772 210.978C200.16 212.823 200.018 214.583 199.344 216.259C198.692 217.919 197.546 219.367 195.906 220.603C195.097 221.213 194.213 221.746 193.254 222.201C192.332 222.662 191.455 223.005 190.624 223.231L196.329 230.802L194.157 232.439L180.122 213.815C177.747 210.663 176.207 208.885 175.502 208.481C175.943 207.648 176.366 207.079 176.77 206.774C177.388 206.309 178.162 206.694 179.093 207.929L179.189 208.057C179.363 206.825 179.771 205.682 180.414 204.63C181.062 203.541 181.897 202.611 182.919 201.84ZM194.558 218.814C196.389 217.434 197.324 215.728 197.362 213.696C197.422 211.648 196.569 209.452 194.803 207.109C191.144 202.254 187.632 201.094 184.267 203.629C183.288 204.368 182.498 205.313 181.898 206.467C181.319 207.604 180.97 208.869 180.85 210.261L189.204 221.346C191.005 220.99 192.79 220.146 194.558 218.814ZM201.381 188.079C202.126 187.517 202.787 187.22 203.363 187.186C203.944 187.116 204.419 187.325 204.788 187.815C205.045 188.156 205.161 188.553 205.135 189.006C204.415 189.115 203.608 189.506 202.714 190.18C201.287 191.255 200.562 192.686 200.54 194.473C200.538 196.243 201.228 198.044 202.608 199.876L209.902 209.555L207.73 211.192L194.49 193.622L196.662 191.985L199.045 195.148C198.797 193.799 198.879 192.468 199.292 191.155C199.705 189.843 200.401 188.817 201.381 188.079ZM226.799 197.324C224.328 199.185 221.887 199.823 219.475 199.236C217.063 198.65 214.718 196.844 212.439 193.82C207.881 187.772 208.094 182.87 213.077 179.115C218.061 175.359 222.831 176.506 227.389 182.554C229.668 185.578 230.757 188.331 230.656 190.811C230.555 193.291 229.269 195.462 226.799 197.324ZM225.451 195.535C227.261 194.171 228.14 192.59 228.088 190.793C228.041 188.958 227.063 186.774 225.153 184.239C223.259 181.726 221.445 180.205 219.711 179.676C217.997 179.13 216.236 179.54 214.425 180.904C212.615 182.268 211.725 183.857 211.756 185.67C211.808 187.467 212.781 189.622 214.675 192.135C216.585 194.67 218.404 196.22 220.133 196.787C221.868 197.316 223.64 196.899 225.451 195.535ZM237.049 161.552C239.265 165.024 240.947 168.564 242.097 172.172C243.23 175.759 243.895 179.632 244.091 183.792L242.015 185.357C238.07 184.022 234.53 182.315 231.395 180.237C228.244 178.137 225.304 175.544 222.577 172.457L224.75 170.82C227.375 173.683 229.988 176.021 232.59 177.834C235.196 179.609 238.096 181.064 241.288 182.198C241.077 178.817 240.467 175.637 239.458 172.658C238.432 169.658 236.905 166.502 234.876 163.189L237.049 161.552ZM259.864 156.18C260.233 156.669 260.581 157.175 260.907 157.697L248.193 167.278C249.905 169.461 251.694 170.817 253.562 171.346C255.451 171.859 257.237 171.482 258.92 170.214C260.07 169.347 260.87 168.393 261.321 167.352C261.793 166.295 261.927 165.076 261.721 163.695C261.661 163.306 261.781 162.999 262.079 162.775C262.42 162.518 263.041 162.367 263.942 162.322C264.516 164.06 264.48 165.806 263.834 167.563C263.171 169.297 261.998 170.799 260.316 172.067C258.761 173.238 257.125 173.903 255.408 174.062C253.697 174.183 252.018 173.795 250.374 172.897C248.713 171.978 247.176 170.582 245.764 168.708C243.63 165.875 242.664 163.131 242.866 160.474C243.051 157.796 244.369 155.535 246.818 153.689C249.054 152.004 251.322 151.38 253.622 151.818C255.922 152.255 258.002 153.709 259.864 156.18ZM257.435 157.609C254.546 153.776 251.441 153.111 248.118 155.614C246.5 156.834 245.591 158.287 245.392 159.972C245.194 161.658 245.715 163.502 246.957 165.505L257.435 157.609ZM276.322 131.456C277.834 130.317 279.428 129.884 281.103 130.158C282.8 130.415 284.234 131.321 285.405 132.876L294.914 145.494L292.71 147.155L283.273 134.633C282.342 133.397 281.375 132.69 280.372 132.511C279.369 132.332 278.303 132.668 277.175 133.519C275.364 134.883 274.308 136.981 274.005 139.814C274.304 140.122 274.518 140.362 274.647 140.532L284.372 153.438L282.2 155.075L272.522 142.233C271.768 141.232 270.858 140.666 269.791 140.535C268.729 140.367 267.697 140.66 266.697 141.414C265.781 142.104 265.06 142.965 264.534 143.995C264.03 145.01 263.7 146.277 263.543 147.798L273.798 161.406L271.626 163.043L262.887 151.447C260.512 148.295 258.972 146.517 258.267 146.114C258.708 145.281 259.131 144.712 259.535 144.407C260.153 143.941 260.927 144.326 261.858 145.561L261.954 145.689C262.186 144.313 262.599 143.133 263.194 142.15C263.811 141.152 264.673 140.235 265.78 139.4C266.781 138.646 267.852 138.206 268.993 138.081C270.118 137.935 271.19 138.095 272.21 138.562C272.452 136.977 272.889 135.63 273.521 134.519C274.174 133.392 275.108 132.371 276.322 131.456ZM306.877 120.752C307.246 121.242 307.594 121.748 307.921 122.27L295.206 131.851C296.918 134.034 298.708 135.39 300.576 135.919C302.465 136.432 304.251 136.054 305.933 134.787C307.083 133.92 307.884 132.966 308.335 131.925C308.807 130.868 308.94 129.649 308.734 128.268C308.675 127.879 308.794 127.572 309.092 127.347C309.433 127.091 310.054 126.94 310.955 126.895C311.53 128.633 311.494 130.379 310.847 132.135C310.184 133.87 309.012 135.372 307.329 136.639C305.775 137.811 304.139 138.476 302.422 138.635C300.71 138.756 299.032 138.368 297.387 137.47C295.726 136.551 294.19 135.155 292.778 133.28C290.643 130.448 289.677 127.704 289.879 125.047C290.065 122.369 291.382 120.108 293.832 118.262C296.068 116.577 298.336 115.953 300.635 116.391C302.935 116.828 305.016 118.282 306.877 120.752ZM304.448 122.182C301.56 118.349 298.454 117.684 295.132 120.187C293.513 121.407 292.605 122.86 292.406 124.545C292.207 126.231 292.728 128.075 293.97 130.078L304.448 122.182ZM329.23 113.224C330.209 114.523 330.886 115.399 331.26 115.851C331.64 116.267 332.03 116.607 332.431 116.873C332.112 117.513 331.655 118.058 331.058 118.508C330.739 118.749 330.358 118.685 329.914 118.318C329.454 117.93 328.711 117.054 327.684 115.691L321.16 107.034C320.037 105.543 318.95 104.677 317.898 104.434C316.831 104.169 315.68 104.503 314.445 105.434C312.528 106.878 311.283 109.302 310.709 112.706L320.747 126.027L318.575 127.664L309.837 116.068C307.462 112.916 305.922 111.138 305.217 110.734C305.657 109.901 306.08 109.333 306.485 109.028C307.102 108.562 307.877 108.947 308.807 110.182L309.024 110.47C309.394 108.922 309.932 107.598 310.639 106.498C311.351 105.361 312.261 104.374 313.368 103.54C315.2 102.16 316.94 101.633 318.589 101.96C320.243 102.25 321.832 103.406 323.357 105.429L329.23 113.224ZM344.511 104.765C344.74 104.759 344.977 104.83 345.223 104.979C345.474 105.091 345.68 105.253 345.84 105.466C346.145 105.87 346.191 106.286 345.979 106.713C345.554 107.568 344.799 108.404 343.713 109.223C342.328 110.266 340.94 110.728 339.548 110.608C338.139 110.467 336.954 109.758 335.991 108.48L326.964 96.5006L323.641 99.0042L322.341 97.2791L325.664 94.7756L322.053 89.9838L324.225 88.3468L327.836 93.1387L332.436 89.6722L333.736 91.3973L329.136 94.8637L337.85 106.428C339.198 108.217 340.639 108.534 342.172 107.378C343.152 106.64 343.931 105.769 344.511 104.765Z" fill="white"/>
<path id="text_quality" d="M725.606 463.563C722.474 462.423 720.025 460.964 718.26 459.186C716.486 457.434 715.452 455.44 715.159 453.205C714.486 453.414 713.239 453.84 711.416 454.482C711.232 454.131 711.12 453.736 711.082 453.296C711.034 452.881 711.083 452.473 711.229 452.072C711.466 451.421 712.035 450.989 712.935 450.778L715.214 450.245C715.347 449.414 715.581 448.534 715.919 447.607C717.205 444.074 719.372 441.784 722.421 440.737C725.46 439.715 729.185 440.006 733.596 441.611C737.906 443.18 740.871 445.324 742.493 448.042C744.105 450.786 744.268 453.924 742.982 457.457C741.696 460.991 739.558 463.277 736.569 464.318C733.57 465.383 729.916 465.131 725.606 463.563ZM718.325 448.483C718.224 448.758 718.108 449.156 717.976 449.675L722.251 448.805L721.211 451.662C720.049 451.892 718.899 452.168 717.759 452.491C718.153 456.011 721.106 458.775 726.618 460.781C733.936 463.444 738.588 462.045 740.576 456.582C742.565 451.119 739.9 447.056 732.583 444.393C728.85 443.034 725.78 442.697 723.374 443.382C720.993 444.076 719.31 445.776 718.325 448.483ZM708.822 481.491C707.369 480.962 705.972 480.666 704.633 480.605C704.523 479.969 704.569 479.375 704.77 478.824C704.961 478.298 705.316 477.987 705.833 477.891C706.366 477.83 707.213 477.997 708.375 478.391C707.653 477.334 707.224 476.057 707.088 474.56C706.977 473.072 707.19 471.589 707.728 470.11C709.27 465.876 712.358 464.602 716.994 466.289L731.09 471.419L730.159 473.975L716.327 468.941C714.498 468.275 713.047 468.13 711.973 468.506C710.925 468.89 710.132 469.822 709.594 471.3C709.111 472.628 708.997 473.992 709.254 475.391C709.502 476.815 710.099 478.139 711.044 479.362L726.192 484.876L725.248 487.469L708.822 481.491ZM701.935 503.22C700.782 502.8 699.836 502.555 699.095 502.484C698.371 502.448 697.659 502.572 696.959 502.856C696.8 502.514 696.709 502.141 696.686 501.735C696.654 501.355 696.693 501.014 696.803 500.713C696.985 500.212 697.428 499.891 698.132 499.75C698.827 499.634 699.694 499.708 700.733 499.973C699.963 498.813 699.502 497.468 699.35 495.937C699.223 494.415 699.419 492.939 699.939 491.511C700.632 489.607 701.677 488.256 703.074 487.459C704.496 486.671 706.009 486.569 707.613 487.153C709.968 488.01 711.395 489.821 711.893 492.584C712.382 495.373 711.929 498.997 710.533 503.455L711.736 503.893C713.39 504.494 714.773 504.515 715.885 503.955C717.013 503.429 717.887 502.314 718.507 500.61C718.908 499.508 719.044 498.394 718.915 497.268C718.801 496.177 718.401 494.896 717.716 493.427C717.62 493.222 717.614 493.006 717.696 492.781C717.787 492.53 717.988 492.291 718.297 492.063C718.632 491.845 719.051 491.671 719.552 491.541C720.47 493.152 721.019 494.799 721.201 496.483C721.374 498.192 721.164 499.86 720.571 501.489C719.723 503.82 718.43 505.421 716.694 506.293C714.948 507.19 712.986 507.242 710.806 506.448L701.935 503.22ZM701.976 492.465C701.483 493.818 701.394 495.233 701.708 496.71C702.022 498.186 702.708 499.614 703.767 500.992L708.428 502.689C710.754 495.362 710.176 491.065 706.693 489.798C704.487 488.995 702.915 489.884 701.976 492.465ZM724.033 518.994L723.102 521.55L693.37 510.728L694.301 508.172L724.033 518.994ZM711.177 526.13L710.246 528.686L689.573 521.162L690.503 518.606L711.177 526.13ZM714.562 528.639C714.973 527.512 715.742 527.153 716.87 527.564L717.208 527.687C718.335 528.097 718.694 528.866 718.284 529.994L718.174 530.295C717.764 531.422 716.995 531.781 715.867 531.37L715.529 531.247C714.401 530.837 714.043 530.068 714.453 528.94L714.562 528.639ZM685.906 539.071C685.717 539.201 685.479 539.27 685.192 539.279C684.921 539.323 684.66 539.299 684.41 539.207C683.933 539.034 683.668 538.71 683.614 538.237C683.505 537.289 683.683 536.176 684.148 534.898C684.741 533.269 685.653 532.126 686.886 531.468C688.144 530.819 689.525 530.768 691.028 531.315L705.123 536.445L706.546 532.536L708.576 533.275L707.153 537.184L712.791 539.236L711.861 541.792L706.223 539.74L704.253 545.153L702.223 544.414L704.193 539.001L690.586 534.049C688.481 533.283 687.101 533.802 686.444 535.606C686.024 536.759 685.845 537.914 685.906 539.071ZM697.139 564.699L677.801 548.594C676.076 547.172 674.959 545.758 674.449 544.352C673.905 542.962 673.93 541.453 674.522 539.824C674.869 538.872 675.293 538.175 675.794 537.733C676.271 537.282 676.747 537.143 677.223 537.316C677.724 537.499 678.048 537.858 678.193 538.393C677.927 538.58 677.639 538.901 677.332 539.357C677.015 539.837 676.765 540.328 676.583 540.829C676.209 541.857 676.341 542.898 676.978 543.953C677.607 545.033 678.752 546.174 680.415 547.375L703.432 547.409L702.447 550.115L683.62 550.031L698.124 561.993L697.139 564.699ZM689.157 421.375C688.004 420.955 687.058 420.71 686.317 420.639C685.593 420.602 684.881 420.726 684.181 421.011C684.022 420.669 683.931 420.295 683.908 419.89C683.877 419.509 683.915 419.169 684.025 418.868C684.207 418.367 684.65 418.046 685.354 417.905C686.049 417.789 686.916 417.863 687.955 418.128C687.185 416.968 686.724 415.622 686.572 414.091C686.445 412.569 686.641 411.094 687.161 409.666C687.854 407.761 688.899 406.411 690.296 405.614C691.718 404.826 693.231 404.724 694.835 405.308C697.19 406.165 698.617 407.975 699.115 410.739C699.604 413.528 699.151 417.151 697.755 421.61L698.958 422.047C700.612 422.649 701.995 422.67 703.107 422.11C704.235 421.584 705.109 420.469 705.729 418.765C706.13 417.663 706.266 416.549 706.137 415.423C706.023 414.332 705.624 413.051 704.938 411.581C704.843 411.376 704.836 411.161 704.918 410.936C705.009 410.685 705.21 410.446 705.52 410.218C705.855 409.999 706.273 409.825 706.774 409.696C707.692 411.307 708.241 412.954 708.423 414.638C708.596 416.346 708.386 418.015 707.793 419.644C706.945 421.974 705.652 423.576 703.916 424.448C702.171 425.345 700.208 425.397 698.028 424.603L689.157 421.375ZM689.198 410.62C688.705 411.973 688.616 413.388 688.93 414.864C689.244 416.341 689.93 417.768 690.989 419.147L695.65 420.843C697.976 413.517 697.398 409.22 693.915 407.952C691.71 407.15 690.137 408.039 689.198 410.62ZM699.453 442.558C698.431 445.365 696.724 447.17 694.332 447.973C691.964 448.786 689.064 448.567 685.631 447.318C683.451 446.524 681.688 445.443 680.342 444.073C679.012 442.738 678.173 441.184 677.825 439.411C677.468 437.664 677.64 435.825 678.342 433.896C678.689 432.943 679.14 432.015 679.697 431.111C680.219 430.222 680.767 429.457 681.341 428.815L672.433 425.572L673.363 423.016L695.277 430.992C698.985 432.342 701.245 432.994 702.056 432.949C702.14 433.888 702.096 434.595 701.922 435.071C701.658 435.798 700.799 435.897 699.346 435.368L699.195 435.313C699.721 436.441 700.001 437.621 700.035 438.854C700.085 440.121 699.891 441.355 699.453 442.558ZM680.447 434.662C679.663 436.817 679.808 438.757 680.883 440.482C681.949 442.232 683.86 443.608 686.616 444.612C692.33 446.691 695.907 445.751 697.348 441.792C697.767 440.639 697.915 439.416 697.79 438.122C697.656 436.853 697.26 435.602 696.602 434.369L683.559 429.622C682.241 430.902 681.204 432.582 680.447 434.662ZM691.276 465.023C690.255 467.829 688.548 469.634 686.155 470.438C683.788 471.25 680.888 471.032 677.455 469.782C675.275 468.989 673.512 467.907 672.166 466.538C670.836 465.202 669.996 463.648 669.648 461.876C669.291 460.128 669.464 458.29 670.166 456.36C670.513 455.408 670.964 454.48 671.52 453.575C672.042 452.687 672.59 451.922 673.165 451.279L664.256 448.037L665.187 445.481L687.1 453.457C690.809 454.807 693.069 455.459 693.88 455.414C693.964 456.352 693.919 457.06 693.746 457.536C693.481 458.263 692.623 458.361 691.169 457.832L691.019 457.778C691.545 458.906 691.825 460.086 691.858 461.318C691.908 462.585 691.714 463.82 691.276 465.023ZM672.271 457.126C671.487 459.281 671.632 461.221 672.707 462.946C673.772 464.696 675.683 466.073 678.44 467.076C684.153 469.156 687.73 468.216 689.171 464.257C689.591 463.104 689.738 461.88 689.613 460.586C689.479 459.317 689.083 458.066 688.425 456.834L675.382 452.086C674.065 453.366 673.028 455.046 672.271 457.126ZM683.288 486.619C682.969 487.496 682.577 488.106 682.112 488.447C681.663 488.823 681.15 488.906 680.574 488.696C680.173 488.55 679.86 488.28 679.635 487.886C680.179 487.403 680.643 486.636 681.026 485.583C681.637 483.904 681.466 482.309 680.511 480.799C679.548 479.313 677.989 478.178 675.834 477.393L664.445 473.248L665.375 470.692L686.048 478.217L685.118 480.773L681.397 479.418C682.34 480.414 682.996 481.575 683.364 482.901C683.733 484.227 683.708 485.467 683.288 486.619ZM659.698 502.313C658.545 501.893 657.599 501.648 656.858 501.577C656.134 501.541 655.422 501.665 654.722 501.949C654.563 501.607 654.472 501.234 654.449 500.828C654.417 500.448 654.456 500.107 654.566 499.806C654.748 499.305 655.191 498.984 655.895 498.843C656.59 498.727 657.457 498.801 658.496 499.066C657.726 497.906 657.265 496.561 657.113 495.03C656.986 493.508 657.182 492.033 657.702 490.604C658.395 488.7 659.44 487.349 660.837 486.552C662.259 485.764 663.772 485.662 665.376 486.246C667.731 487.103 669.158 488.914 669.656 491.677C670.145 494.466 669.692 498.09 668.296 502.548L669.499 502.986C671.153 503.588 672.536 503.609 673.648 503.048C674.776 502.522 675.65 501.407 676.27 499.704C676.671 498.601 676.807 497.487 676.677 496.361C676.564 495.27 676.164 493.99 675.479 492.52C675.383 492.315 675.377 492.099 675.459 491.874C675.55 491.623 675.751 491.384 676.06 491.156C676.395 490.938 676.814 490.764 677.315 490.634C678.232 492.245 678.782 493.892 678.964 495.576C679.137 497.285 678.927 498.954 678.334 500.582C677.485 502.913 676.193 504.514 674.457 505.386C672.711 506.283 670.749 506.335 668.569 505.542L659.698 502.313ZM659.739 491.558C659.246 492.911 659.157 494.326 659.471 495.803C659.785 497.279 660.471 498.707 661.53 500.085L666.191 501.782C668.517 494.455 667.939 490.158 664.456 488.891C662.25 488.088 660.678 488.977 659.739 491.558ZM672.6 515.166L671.67 517.722L650.997 510.197L651.927 507.641L672.6 515.166ZM675.986 517.675C676.397 516.547 677.166 516.189 678.293 516.599L678.631 516.722C679.759 517.133 680.118 517.902 679.707 519.029L679.598 519.33C679.187 520.458 678.418 520.816 677.291 520.406L676.952 520.283C675.825 519.872 675.466 519.103 675.877 517.976L675.986 517.675ZM645.763 523.407C646.173 522.28 646.785 521.183 647.599 520.117C648.413 519.051 649.279 518.231 650.197 517.657C651.115 517.083 651.925 516.924 652.627 517.179C652.953 517.298 653.204 517.503 653.382 517.795C653.576 518.12 653.663 518.464 653.645 518.827C652.139 519.3 650.919 519.963 649.984 520.815C649.075 521.676 648.351 522.845 647.813 524.324C647.238 525.902 647.169 527.225 647.603 528.291C648.029 529.383 648.843 530.147 650.046 530.585C650.848 530.877 651.591 530.863 652.274 530.545C652.949 530.251 653.544 529.786 654.059 529.151C654.565 528.54 655.209 527.668 655.99 526.534C656.895 525.217 657.687 524.172 658.366 523.397C659.036 522.648 659.836 522.088 660.766 521.717C661.711 521.38 662.786 521.43 663.988 521.868C665.266 522.333 666.221 523.063 666.852 524.059C667.482 525.055 667.819 526.157 667.862 527.364C667.905 528.572 667.726 529.727 667.325 530.829C666.75 532.408 665.917 533.722 664.825 534.772C663.725 535.847 662.441 536.529 660.973 536.818C660.566 535.989 660.44 535.361 660.595 534.935C660.713 534.609 661.003 534.36 661.463 534.187C662.383 533.841 663.152 533.326 663.77 532.643C664.404 531.994 664.926 531.105 665.336 529.978C665.801 528.7 665.87 527.576 665.542 526.605C665.214 525.634 664.424 524.921 663.171 524.465C662.444 524.2 661.773 524.212 661.158 524.498C660.543 524.785 659.987 525.221 659.49 525.807C659.018 526.401 658.418 527.233 657.688 528.301C656.79 529.677 655.985 530.76 655.271 531.55C654.549 532.366 653.668 532.953 652.629 533.313C651.615 533.682 650.444 533.624 649.116 533.141C647.262 532.466 646.034 531.239 645.433 529.459C644.823 527.705 644.933 525.687 645.763 523.407ZM641.488 552.344C640.335 551.925 639.389 551.68 638.648 551.609C637.924 551.572 637.212 551.696 636.512 551.981C636.353 551.639 636.262 551.265 636.239 550.86C636.207 550.479 636.246 550.138 636.356 549.838C636.538 549.337 636.981 549.015 637.685 548.874C638.38 548.758 639.247 548.833 640.286 549.097C639.516 547.937 639.055 546.592 638.903 545.061C638.776 543.539 638.972 542.064 639.492 540.636C640.185 538.731 641.23 537.38 642.627 536.583C644.049 535.796 645.562 535.693 647.166 536.277C649.521 537.134 650.948 538.945 651.446 541.709C651.935 544.497 651.482 548.121 650.086 552.579L651.289 553.017C652.943 553.619 654.326 553.64 655.438 553.08C656.566 552.554 657.44 551.439 658.06 549.735C658.461 548.632 658.597 547.518 658.468 546.393C658.354 545.301 657.955 544.021 657.269 542.551C657.174 542.346 657.167 542.131 657.249 541.905C657.34 541.655 657.541 541.415 657.851 541.188C658.186 540.969 658.604 540.795 659.105 540.665C660.023 542.276 660.572 543.924 660.754 545.607C660.927 547.316 660.717 548.985 660.124 550.614C659.276 552.944 657.983 554.545 656.247 555.417C654.502 556.315 652.539 556.366 650.359 555.573L641.488 552.344ZM641.529 541.59C641.036 542.943 640.947 544.358 641.261 545.834C641.575 547.31 642.261 548.738 643.32 550.117L647.981 551.813C650.307 544.487 649.729 540.19 646.246 538.922C644.04 538.119 642.468 539.009 641.529 541.59ZM663.586 568.118L662.655 570.674L632.924 559.853L633.854 557.297L663.586 568.118Z" fill="white"/>
<path id="text_data" d="M369.497 661C373.631 661 376.804 662.213 379.017 664.64C381.257 667.04 382.377 670.493 382.377 675C382.377 677.88 381.857 680.373 380.817 682.48C379.804 684.587 378.324 686.2 376.377 687.32C374.457 688.44 372.164 689 369.497 689H361.217V661H369.497ZM369.497 686.6C372.751 686.6 375.217 685.627 376.897 683.68C378.577 681.707 379.417 678.827 379.417 675.04C379.417 671.12 378.591 668.2 376.937 666.28C375.311 664.36 372.831 663.4 369.497 663.4H364.097V686.6H369.497ZM403.692 683.52C403.692 684.747 403.786 685.72 403.972 686.44C404.186 687.133 404.546 687.76 405.052 688.32C404.786 688.587 404.466 688.8 404.092 688.96C403.746 689.12 403.412 689.2 403.092 689.2C402.559 689.2 402.106 688.893 401.732 688.28C401.386 687.667 401.159 686.827 401.052 685.76C400.226 686.88 399.119 687.773 397.732 688.44C396.346 689.08 394.892 689.4 393.372 689.4C391.346 689.4 389.719 688.88 388.492 687.84C387.266 686.773 386.652 685.387 386.652 683.68C386.652 681.173 387.866 679.213 390.292 677.8C392.746 676.387 396.306 675.573 400.972 675.36V674.08C400.972 672.32 400.519 671.013 399.612 670.16C398.732 669.28 397.386 668.84 395.572 668.84C394.399 668.84 393.306 669.093 392.292 669.6C391.306 670.08 390.239 670.893 389.092 672.04C388.932 672.2 388.732 672.28 388.492 672.28C388.226 672.28 387.932 672.173 387.612 671.96C387.292 671.72 386.986 671.387 386.692 670.96C387.892 669.547 389.252 668.467 390.772 667.72C392.319 666.973 393.959 666.6 395.692 666.6C398.172 666.6 400.119 667.267 401.532 668.6C402.972 669.933 403.692 671.76 403.692 674.08V683.52ZM393.572 687.16C395.012 687.16 396.372 686.76 397.652 685.96C398.932 685.16 400.039 684.027 400.972 682.56V677.6C393.292 677.92 389.452 679.933 389.452 683.64C389.452 685.987 390.826 687.16 393.572 687.16ZM420.637 686.32C420.824 686.453 420.97 686.653 421.077 686.92C421.21 687.16 421.277 687.413 421.277 687.68C421.277 688.187 421.064 688.547 420.637 688.76C419.784 689.187 418.677 689.4 417.317 689.4C415.584 689.4 414.197 688.933 413.157 688C412.117 687.04 411.597 685.76 411.597 684.16V669.16H407.437V667H411.597V661H414.317V667H420.077V669.16H414.317V683.64C414.317 685.88 415.277 687 417.197 687C418.424 687 419.57 686.773 420.637 686.32ZM440.958 683.52C440.958 684.747 441.051 685.72 441.238 686.44C441.451 687.133 441.811 687.76 442.318 688.32C442.051 688.587 441.731 688.8 441.358 688.96C441.011 689.12 440.678 689.2 440.358 689.2C439.825 689.2 439.371 688.893 438.998 688.28C438.651 687.667 438.425 686.827 438.318 685.76C437.491 686.88 436.385 687.773 434.998 688.44C433.611 689.08 432.158 689.4 430.638 689.4C428.611 689.4 426.985 688.88 425.758 687.84C424.531 686.773 423.918 685.387 423.918 683.68C423.918 681.173 425.131 679.213 427.558 677.8C430.011 676.387 433.571 675.573 438.238 675.36V674.08C438.238 672.32 437.785 671.013 436.878 670.16C435.998 669.28 434.651 668.84 432.838 668.84C431.665 668.84 430.571 669.093 429.558 669.6C428.571 670.08 427.505 670.893 426.358 672.04C426.198 672.2 425.998 672.28 425.758 672.28C425.491 672.28 425.198 672.173 424.878 671.96C424.558 671.72 424.251 671.387 423.958 670.96C425.158 669.547 426.518 668.467 428.038 667.72C429.585 666.973 431.225 666.6 432.958 666.6C435.438 666.6 437.385 667.267 438.798 668.6C440.238 669.933 440.958 671.76 440.958 674.08V683.52ZM430.838 687.16C432.278 687.16 433.638 686.76 434.918 685.96C436.198 685.16 437.305 684.027 438.238 682.56V677.6C430.558 677.92 426.718 679.933 426.718 683.64C426.718 685.987 428.091 687.16 430.838 687.16ZM345.294 723.52C345.294 724.747 345.387 725.72 345.574 726.44C345.787 727.133 346.147 727.76 346.654 728.32C346.387 728.587 346.067 728.8 345.694 728.96C345.347 729.12 345.014 729.2 344.694 729.2C344.161 729.2 343.707 728.893 343.334 728.28C342.987 727.667 342.761 726.827 342.654 725.76C341.827 726.88 340.721 727.773 339.334 728.44C337.947 729.08 336.494 729.4 334.974 729.4C332.947 729.4 331.321 728.88 330.094 727.84C328.867 726.773 328.254 725.387 328.254 723.68C328.254 721.173 329.467 719.213 331.894 717.8C334.347 716.387 337.907 715.573 342.574 715.36V714.08C342.574 712.32 342.121 711.013 341.214 710.16C340.334 709.28 338.987 708.84 337.174 708.84C336.001 708.84 334.907 709.093 333.894 709.6C332.907 710.08 331.841 710.893 330.694 712.04C330.534 712.2 330.334 712.28 330.094 712.28C329.827 712.28 329.534 712.173 329.214 711.96C328.894 711.72 328.587 711.387 328.294 710.96C329.494 709.547 330.854 708.467 332.374 707.72C333.921 706.973 335.561 706.6 337.294 706.6C339.774 706.6 341.721 707.267 343.134 708.6C344.574 709.933 345.294 711.76 345.294 714.08V723.52ZM335.174 727.16C336.614 727.16 337.974 726.76 339.254 725.96C340.534 725.16 341.641 724.027 342.574 722.56V717.6C334.894 717.92 331.054 719.933 331.054 723.64C331.054 725.987 332.427 727.16 335.174 727.16ZM369.359 723.88C369.359 725.507 369.372 726.613 369.399 727.2C369.452 727.76 369.559 728.267 369.719 728.72C369.079 729.04 368.385 729.2 367.639 729.2C367.239 729.2 366.972 728.92 366.839 728.36C366.705 727.773 366.639 726.627 366.639 724.92V714.08C366.639 712.213 366.292 710.867 365.599 710.04C364.905 709.187 363.785 708.76 362.239 708.76C359.839 708.76 357.385 709.947 354.879 712.32V729H352.159V714.48C352.159 710.533 351.999 708.187 351.679 707.44C352.532 707.04 353.212 706.84 353.719 706.84C354.492 706.84 354.879 707.613 354.879 709.16V709.52C356.105 708.507 357.332 707.773 358.559 707.32C359.812 706.84 361.132 706.6 362.519 706.6C364.812 706.6 366.519 707.227 367.639 708.48C368.785 709.707 369.359 711.587 369.359 714.12V723.88ZM392.013 723.52C392.013 724.747 392.106 725.72 392.293 726.44C392.506 727.133 392.866 727.76 393.373 728.32C393.106 728.587 392.786 728.8 392.413 728.96C392.066 729.12 391.733 729.2 391.413 729.2C390.879 729.2 390.426 728.893 390.053 728.28C389.706 727.667 389.479 726.827 389.373 725.76C388.546 726.88 387.439 727.773 386.053 728.44C384.666 729.08 383.213 729.4 381.693 729.4C379.666 729.4 378.039 728.88 376.813 727.84C375.586 726.773 374.973 725.387 374.973 723.68C374.973 721.173 376.186 719.213 378.613 717.8C381.066 716.387 384.626 715.573 389.293 715.36V714.08C389.293 712.32 388.839 711.013 387.933 710.16C387.053 709.28 385.706 708.84 383.893 708.84C382.719 708.84 381.626 709.093 380.613 709.6C379.626 710.08 378.559 710.893 377.413 712.04C377.253 712.2 377.053 712.28 376.813 712.28C376.546 712.28 376.253 712.173 375.933 711.96C375.613 711.72 375.306 711.387 375.013 710.96C376.213 709.547 377.573 708.467 379.093 707.72C380.639 706.973 382.279 706.6 384.013 706.6C386.493 706.6 388.439 707.267 389.853 708.6C391.293 709.933 392.013 711.76 392.013 714.08V723.52ZM381.893 727.16C383.333 727.16 384.693 726.76 385.973 725.96C387.253 725.16 388.359 724.027 389.293 722.56V717.6C381.613 717.92 377.773 719.933 377.773 723.64C377.773 725.987 379.146 727.16 381.893 727.16ZM399.277 697.36H401.997V729H399.277V697.36ZM424.94 707L416.42 730.68C415.674 732.787 414.727 734.32 413.58 735.28C412.46 736.267 411.034 736.76 409.3 736.76C408.287 736.76 407.487 736.6 406.9 736.28C406.314 735.987 406.02 735.587 406.02 735.08C406.02 734.547 406.247 734.12 406.7 733.8C406.967 733.987 407.367 734.147 407.9 734.28C408.46 734.413 409.007 734.48 409.54 734.48C410.634 734.48 411.567 734 412.34 733.04C413.14 732.08 413.82 730.613 414.38 728.64L406.54 707H409.42L415.78 724.72L422.06 707H424.94ZM435.195 729.4C433.995 729.4 432.755 729.2 431.475 728.8C430.195 728.4 429.128 727.867 428.275 727.2C427.421 726.533 426.995 725.827 426.995 725.08C426.995 724.733 427.101 724.427 427.315 724.16C427.555 723.867 427.848 723.667 428.195 723.56C429.155 724.813 430.195 725.733 431.315 726.32C432.435 726.88 433.781 727.16 435.355 727.16C437.035 727.16 438.301 726.773 439.155 726C440.035 725.227 440.475 724.2 440.475 722.92C440.475 722.067 440.208 721.373 439.675 720.84C439.168 720.307 438.528 719.907 437.755 719.64C437.008 719.373 435.968 719.067 434.635 718.72C433.088 718.32 431.835 717.933 430.875 717.56C429.941 717.187 429.141 716.627 428.475 715.88C427.835 715.107 427.515 714.08 427.515 712.8C427.515 711.44 427.875 710.293 428.595 709.36C429.315 708.427 430.235 707.733 431.355 707.28C432.475 706.827 433.621 706.6 434.795 706.6C436.475 706.6 437.995 706.933 439.355 707.6C440.741 708.267 441.821 709.24 442.595 710.52C441.955 711.187 441.408 711.52 440.955 711.52C440.608 711.52 440.275 711.333 439.955 710.96C439.315 710.213 438.568 709.667 437.715 709.32C436.888 708.947 435.875 708.76 434.675 708.76C433.315 708.76 432.235 709.08 431.435 709.72C430.635 710.36 430.235 711.347 430.235 712.68C430.235 713.453 430.475 714.08 430.955 714.56C431.435 715.04 432.035 715.413 432.755 715.68C433.475 715.92 434.461 716.2 435.715 716.52C437.315 716.893 438.608 717.28 439.595 717.68C440.608 718.08 441.461 718.707 442.155 719.56C442.848 720.387 443.195 721.507 443.195 722.92C443.195 724.893 442.461 726.467 440.995 727.64C439.555 728.813 437.621 729.4 435.195 729.4ZM449.209 707H451.929V729H449.209V707ZM450.409 702.96C449.209 702.96 448.609 702.36 448.609 701.16V700.8C448.609 699.6 449.209 699 450.409 699H450.729C451.929 699 452.529 699.6 452.529 700.8V701.16C452.529 702.36 451.929 702.96 450.729 702.96H450.409ZM466.132 729.4C464.932 729.4 463.692 729.2 462.412 728.8C461.132 728.4 460.065 727.867 459.212 727.2C458.359 726.533 457.932 725.827 457.932 725.08C457.932 724.733 458.039 724.427 458.252 724.16C458.492 723.867 458.785 723.667 459.132 723.56C460.092 724.813 461.132 725.733 462.252 726.32C463.372 726.88 464.719 727.16 466.292 727.16C467.972 727.16 469.239 726.773 470.092 726C470.972 725.227 471.412 724.2 471.412 722.92C471.412 722.067 471.145 721.373 470.612 720.84C470.105 720.307 469.465 719.907 468.692 719.64C467.945 719.373 466.905 719.067 465.572 718.72C464.025 718.32 462.772 717.933 461.812 717.56C460.879 717.187 460.079 716.627 459.412 715.88C458.772 715.107 458.452 714.08 458.452 712.8C458.452 711.44 458.812 710.293 459.532 709.36C460.252 708.427 461.172 707.733 462.292 707.28C463.412 706.827 464.559 706.6 465.732 706.6C467.412 706.6 468.932 706.933 470.292 707.6C471.679 708.267 472.759 709.24 473.532 710.52C472.892 711.187 472.345 711.52 471.892 711.52C471.545 711.52 471.212 711.333 470.892 710.96C470.252 710.213 469.505 709.667 468.652 709.32C467.825 708.947 466.812 708.76 465.612 708.76C464.252 708.76 463.172 709.08 462.372 709.72C461.572 710.36 461.172 711.347 461.172 712.68C461.172 713.453 461.412 714.08 461.892 714.56C462.372 715.04 462.972 715.413 463.692 715.68C464.412 715.92 465.399 716.2 466.652 716.52C468.252 716.893 469.545 717.28 470.532 717.68C471.545 718.08 472.399 718.707 473.092 719.56C473.785 720.387 474.132 721.507 474.132 722.92C474.132 724.893 473.399 726.467 471.932 727.64C470.492 728.813 468.559 729.4 466.132 729.4Z" fill="white"/>
<path id="text_dev" d="M107.6 569.79C106.35 566.357 106.121 563.504 106.91 561.23C107.666 558.94 109.422 557.293 112.179 556.29C114.985 555.269 117.426 555.387 119.502 556.647C121.569 557.881 123.227 560.215 124.477 563.648L126.337 568.76L135.772 565.326L136.757 568.032L110.445 577.609L107.6 569.79ZM122.146 564.496C121.17 561.815 119.97 560.038 118.546 559.166C117.088 558.278 115.294 558.221 113.164 558.996C111.059 559.763 109.758 560.945 109.262 562.545C108.732 564.128 108.954 566.261 109.93 568.942L111.791 574.054L124.007 569.608L122.146 564.496ZM98.4166 555.202L97.4863 552.646L127.218 541.825L128.148 544.381L98.4166 555.202ZM114.194 522.064C115.347 521.645 116.23 521.224 116.842 520.802C117.421 520.365 117.887 519.812 118.24 519.144C118.581 519.304 118.891 519.532 119.169 519.828C119.438 520.099 119.627 520.385 119.737 520.685C119.919 521.186 119.786 521.717 119.338 522.278C118.88 522.813 118.168 523.314 117.202 523.779C118.537 524.173 119.755 524.907 120.856 525.982C121.932 527.066 122.729 528.322 123.249 529.751C123.942 531.655 124.01 533.362 123.452 534.87C122.87 536.387 121.776 537.438 120.173 538.022C117.817 538.879 115.56 538.409 113.402 536.612C111.235 534.79 109.253 531.723 107.457 527.411L106.254 527.849C104.6 528.451 103.527 529.324 103.035 530.467C102.509 531.595 102.557 533.011 103.177 534.715C103.578 535.818 104.19 536.759 105.013 537.538C105.801 538.301 106.93 539.025 108.4 539.71C108.605 539.806 108.749 539.966 108.831 540.192C108.922 540.442 108.922 540.754 108.831 541.128C108.715 541.511 108.507 541.913 108.206 542.335C106.468 541.69 104.988 540.782 103.766 539.609C102.535 538.411 101.624 536.997 101.031 535.369C100.183 533.038 100.143 530.981 100.913 529.197C101.673 527.388 103.143 526.086 105.324 525.293L114.194 522.064ZM121.076 530.329C120.583 528.976 119.742 527.835 118.553 526.905C117.363 525.976 115.92 525.324 114.222 524.948L109.562 526.645C112.489 533.752 115.694 536.672 119.177 535.404C121.383 534.602 122.015 532.91 121.076 530.329ZM111.03 505.184C111.091 504.963 111.229 504.756 111.443 504.565C111.623 504.358 111.838 504.208 112.089 504.117C112.565 503.944 112.976 504.021 113.323 504.349C114.016 505.005 114.595 505.972 115.06 507.25C115.653 508.879 115.688 510.342 115.167 511.638C114.621 512.944 113.596 513.87 112.092 514.417L97.9967 519.548L99.4195 523.457L97.3898 524.195L95.967 520.286L90.3288 522.338L89.3985 519.783L95.0367 517.73L93.0666 512.318L95.0964 511.579L97.0664 516.992L110.673 512.039C112.778 511.273 113.502 509.988 112.846 508.184C112.426 507.031 111.821 506.031 111.03 505.184ZM80.2144 504.139C79.7948 502.987 79.6134 502.059 79.6702 501.358C79.7269 500.656 80.0184 500.209 80.5446 500.018C80.8203 499.917 81.1016 499.872 81.3887 499.881C81.6416 499.874 81.7908 499.933 81.8364 500.058C81.7342 500.947 81.8609 501.88 82.2166 502.857C82.5997 503.91 83.2173 504.593 84.0695 504.907C84.9216 505.221 85.9616 505.155 87.1895 504.708L89.9334 503.709L88.237 499.048L90.1916 498.337L91.888 502.998L110.607 496.185L111.537 498.741L92.8183 505.554L94.2274 509.425L92.2728 510.137L90.8637 506.265L88.0822 507.278C86.278 507.934 84.6639 507.983 83.2398 507.423C81.8065 506.837 80.7981 505.743 80.2144 504.139ZM105.155 480.037C106.213 482.944 106.109 485.465 104.843 487.6C103.577 489.735 101.165 491.45 97.6063 492.745C90.4897 495.336 85.8643 493.699 83.73 487.835C81.5958 481.972 84.087 477.745 91.2036 475.154C94.7619 473.859 97.7123 473.623 100.055 474.444C102.397 475.266 104.097 477.13 105.155 480.037ZM103.05 480.803C102.275 478.673 101.02 477.37 99.2864 476.895C97.5183 476.403 95.1433 476.7 92.1613 477.785C89.2044 478.862 87.2193 480.152 86.2059 481.656C85.1833 483.135 85.0597 484.939 85.835 487.069C86.6102 489.199 87.8693 490.514 89.6124 491.015C91.3463 491.491 93.6917 491.19 96.6486 490.114C99.6306 489.029 101.645 487.742 102.693 486.254C103.706 484.75 103.825 482.933 103.05 480.803ZM75.91 465.999C75.5908 465.122 75.4994 464.403 75.6359 463.843C75.7383 463.266 76.0776 462.873 76.654 462.663C77.0549 462.517 77.4684 462.523 77.8945 462.68C77.7877 463.4 77.9257 464.286 78.3088 465.339C78.9199 467.018 80.0764 468.129 81.7785 468.673C83.4714 469.192 85.3954 469.059 87.5504 468.275L98.9395 464.13L99.8698 466.686L79.1965 474.21L78.2662 471.654L81.9874 470.3C80.625 470.143 79.3763 469.675 78.2415 468.896C77.1067 468.117 76.3295 467.152 75.91 465.999ZM65.4629 437.647C64.8153 435.867 64.8672 434.217 65.6186 432.695C66.3609 431.147 67.6466 430.041 69.4759 429.375L84.323 423.971L85.267 426.565L70.5326 431.928C69.0792 432.457 68.1203 433.175 67.6558 434.081C67.1913 434.988 67.2007 436.106 67.6841 437.434C68.4594 439.564 70.1572 441.188 72.7775 442.306C73.1602 442.11 73.4518 441.975 73.6523 441.902L88.8377 436.375L89.768 438.931L74.6577 444.431C73.48 444.859 72.6726 445.565 72.2354 446.547C71.7641 447.513 71.7428 448.585 72.1714 449.763C72.5636 450.84 73.1756 451.781 74.0074 452.585C74.8301 453.364 75.9455 454.051 77.3537 454.645L93.3661 448.817L94.2963 451.373L80.652 456.339C76.9434 457.689 74.7929 458.642 74.2007 459.198C73.533 458.533 73.1125 457.962 72.9392 457.486C72.6747 456.759 73.2692 456.131 74.7226 455.602L74.8729 455.548C73.6242 454.924 72.617 454.184 71.8512 453.327C71.0764 452.446 70.4518 451.353 69.9775 450.05C69.5489 448.873 69.4414 447.72 69.6553 446.592C69.844 445.473 70.3108 444.495 71.0555 443.656C69.6109 442.962 68.4499 442.15 67.5725 441.221C66.6859 440.266 65.9827 439.075 65.4629 437.647ZM177.875 579.022C178.677 578.73 179.473 578.383 180.264 577.982C181.054 577.581 181.698 577.205 182.194 576.854C182.723 577.371 183.083 577.893 183.275 578.419C183.521 579.095 182.824 579.831 181.184 580.627C182.487 581.089 183.53 581.731 184.311 582.554C185.093 583.376 185.744 584.501 186.264 585.929C187.258 588.661 187.098 591.145 185.784 593.383C184.445 595.63 182.122 597.355 178.814 598.559C175.406 599.799 172.461 599.935 169.98 598.965C167.465 597.979 165.664 595.995 164.579 593.013C164.241 592.086 164.061 591.045 164.038 589.89C163.981 588.719 164.079 587.704 164.334 586.845L153.885 590.648L152.955 588.092L177.875 579.022ZM184.09 586.508C183.625 585.23 182.952 584.198 182.07 583.412C181.188 582.626 180.05 582.033 178.655 581.633L166.815 585.942C166.408 586.771 166.182 587.79 166.139 588.997C166.087 590.18 166.244 591.272 166.609 592.275C167.411 594.48 168.779 595.898 170.711 596.528C172.643 597.159 175.025 596.959 177.856 595.928C180.613 594.925 182.534 593.615 183.62 592C184.682 590.393 184.838 588.562 184.09 586.508ZM162.53 558.613C163.106 558.404 163.692 558.219 164.286 558.059L169.731 573.019C172.319 572.02 174.139 570.705 175.191 569.074C176.234 567.417 176.395 565.599 175.675 563.619C175.182 562.266 174.504 561.222 173.64 560.486C172.768 559.726 171.641 559.242 170.26 559.035C169.871 558.978 169.612 558.774 169.484 558.423C169.338 558.022 169.376 557.384 169.596 556.51C171.426 556.468 173.086 557.013 174.576 558.145C176.041 559.286 177.134 560.846 177.855 562.826C178.521 564.655 178.678 566.414 178.328 568.102C177.943 569.775 177.082 571.266 175.742 572.576C174.378 573.896 172.593 574.957 170.388 575.76C167.055 576.973 164.148 577.094 161.667 576.124C159.161 575.164 157.383 573.243 156.334 570.361C155.376 567.73 155.443 565.379 156.534 563.307C157.624 561.236 159.623 559.671 162.53 558.613ZM163.187 561.354C158.676 562.996 157.132 565.771 158.555 569.68C159.248 571.585 160.372 572.878 161.926 573.561C163.48 574.244 165.396 574.285 167.674 573.683L163.187 561.354ZM146.701 542.726C150.67 541.622 154.547 541.048 158.334 541.004C162.095 540.968 165.994 541.465 170.029 542.494L170.918 544.937C168.488 548.318 165.821 551.205 162.917 553.595C159.988 555.995 156.648 558.048 152.899 559.753L151.969 557.197C155.474 555.524 158.474 553.708 160.968 551.751C163.428 549.777 165.667 547.43 167.685 544.709C164.39 543.921 161.171 543.575 158.027 543.669C154.858 543.773 151.393 544.31 147.632 545.282L146.701 542.726ZM148.234 519.337C148.811 519.127 149.396 518.943 149.991 518.783L155.436 533.743C158.024 532.744 159.844 531.429 160.896 529.798C161.939 528.141 162.1 526.323 161.379 524.343C160.887 522.99 160.209 521.946 159.345 521.21C158.472 520.449 157.345 519.966 155.965 519.759C155.575 519.702 155.317 519.498 155.189 519.147C155.043 518.746 155.08 518.108 155.301 517.233C157.13 517.192 158.79 517.737 160.281 518.869C161.746 520.01 162.839 521.57 163.559 523.55C164.225 525.379 164.383 527.138 164.033 528.826C163.648 530.498 162.786 531.99 161.447 533.3C160.083 534.62 158.298 535.681 156.093 536.483C152.76 537.696 149.853 537.818 147.372 536.848C144.865 535.888 143.088 533.966 142.039 531.085C141.081 528.454 141.148 526.102 142.238 524.031C143.329 521.96 145.328 520.395 148.234 519.337ZM148.891 522.078C144.381 523.719 142.837 526.495 144.26 530.404C144.953 532.308 146.077 533.602 147.631 534.285C149.185 534.968 151.101 535.009 153.379 534.406L148.891 522.078ZM128.396 520.617L127.465 518.061L157.197 507.239L158.128 509.795L128.396 520.617ZM152.462 493.06C153.52 495.967 153.416 498.488 152.15 500.623C150.884 502.758 148.472 504.474 144.913 505.769C137.797 508.359 133.171 506.722 131.037 500.859C128.903 494.995 131.394 490.768 138.511 488.178C142.069 486.883 145.019 486.646 147.362 487.468C149.704 488.289 151.404 490.154 152.462 493.06ZM150.357 493.827C149.582 491.697 148.328 490.394 146.594 489.918C144.826 489.427 142.45 489.723 139.469 490.809C136.512 491.885 134.526 493.175 133.513 494.679C132.491 496.158 132.367 497.962 133.142 500.092C133.917 502.222 135.177 503.538 136.92 504.038C138.654 504.514 140.999 504.214 143.956 503.138C146.938 502.052 148.953 500.766 150 499.278C151.014 497.774 151.133 495.957 150.357 493.827ZM122.803 478.236C121.782 475.43 121.929 472.95 123.246 470.796C124.537 468.652 126.899 466.955 130.332 465.706C132.512 464.912 134.558 464.608 136.469 464.792C138.347 464.96 139.988 465.611 141.394 466.745C142.791 467.854 143.841 469.373 144.543 471.303C144.89 472.255 145.141 473.256 145.296 474.306C145.467 475.323 145.539 476.261 145.512 477.122L154.42 473.88L155.351 476.436L133.437 484.412C129.728 485.762 127.578 486.715 126.986 487.271C126.318 486.606 125.897 486.035 125.724 485.559C125.46 484.832 126.054 484.204 127.507 483.675L127.658 483.621C126.53 483.095 125.557 482.371 124.739 481.448C123.886 480.51 123.241 479.439 122.803 478.236ZM142.438 472.069C141.654 469.914 140.296 468.521 138.363 467.891C136.422 467.235 134.073 467.409 131.317 468.412C125.603 470.492 123.467 473.511 124.908 477.47C125.328 478.623 126.001 479.655 126.929 480.566C127.847 481.452 128.955 482.155 130.251 482.677L143.294 477.93C143.481 476.102 143.195 474.149 142.438 472.069ZM110.071 443.255C109.424 441.476 109.476 439.825 110.227 438.303C110.969 436.756 112.255 435.65 114.084 434.984L128.932 429.58L129.875 432.173L115.141 437.536C113.688 438.065 112.729 438.783 112.264 439.69C111.8 440.597 111.809 441.714 112.293 443.043C113.068 445.173 114.766 446.796 117.386 447.914C117.769 447.718 118.06 447.584 118.261 447.511L133.446 441.984L134.376 444.54L119.266 450.039C118.088 450.468 117.281 451.173 116.844 452.156C116.373 453.122 116.351 454.194 116.78 455.371C117.172 456.449 117.784 457.39 118.616 458.194C119.439 458.973 120.554 459.659 121.962 460.253L137.975 454.425L138.905 456.981L125.26 461.947C121.552 463.297 119.401 464.25 118.809 464.806C118.141 464.141 117.721 463.571 117.548 463.095C117.283 462.368 117.878 461.74 119.331 461.211L119.481 461.156C118.233 460.532 117.225 459.792 116.46 458.936C115.685 458.054 115.06 456.962 114.586 455.659C114.157 454.481 114.05 453.329 114.264 452.201C114.452 451.082 114.919 450.103 115.664 449.265C114.219 448.57 113.058 447.758 112.181 446.829C111.294 445.875 110.591 444.683 110.071 443.255ZM108.769 410.905C109.345 410.696 109.93 410.511 110.525 410.351L115.97 425.311C118.558 424.313 120.378 422.997 121.43 421.366C122.473 419.709 122.634 417.891 121.913 415.911C121.421 414.558 120.743 413.514 119.879 412.778C119.006 412.018 117.88 411.534 116.499 411.327C116.109 411.27 115.851 411.066 115.723 410.715C115.577 410.314 115.614 409.677 115.835 408.802C117.665 408.76 119.324 409.305 120.815 410.437C122.28 411.578 123.373 413.138 124.094 415.118C124.759 416.947 124.917 418.706 124.567 420.394C124.182 422.067 123.32 423.558 121.981 424.869C120.617 426.188 118.832 427.249 116.627 428.052C113.294 429.265 110.387 429.386 107.906 428.417C105.399 427.456 103.622 425.535 102.573 422.653C101.615 420.022 101.682 417.671 102.772 415.599C103.863 413.528 105.862 411.963 108.769 410.905ZM109.425 413.646C104.915 415.288 103.371 418.063 104.794 421.972C105.487 423.877 106.611 425.17 108.165 425.853C109.719 426.536 111.635 426.577 113.913 425.975L109.425 413.646ZM108.104 387.328C109.633 386.771 110.668 386.38 111.211 386.155C111.719 385.913 112.158 385.64 112.529 385.334C113.049 385.826 113.437 386.423 113.692 387.125C113.829 387.5 113.657 387.847 113.176 388.164C112.67 388.49 111.616 388.944 110.012 389.528L99.8257 393.236C98.0717 393.874 96.9248 394.66 96.3851 395.595C95.8204 396.538 95.8025 397.736 96.3315 399.19C97.1523 401.445 99.1065 403.345 102.194 404.888L117.868 399.183L118.798 401.739L105.154 406.706C101.445 408.055 99.295 409.008 98.7028 409.564C98.0351 408.899 97.6146 408.329 97.4413 407.853C97.1768 407.126 97.7712 406.498 99.2246 405.969L99.5629 405.846C98.1911 405.04 97.0825 404.138 96.2369 403.14C95.3572 402.127 94.6802 400.968 94.206 399.665C93.4216 397.51 93.4268 395.692 94.2215 394.211C94.982 392.714 96.5525 391.532 98.933 390.666L108.104 387.328ZM104.482 370.242C104.544 370.021 104.682 369.815 104.896 369.623C105.076 369.416 105.291 369.267 105.541 369.176C106.018 369.002 106.429 369.08 106.775 369.408C107.468 370.064 108.047 371.031 108.512 372.309C109.105 373.937 109.141 375.4 108.619 376.696C108.073 378.002 107.048 378.929 105.545 379.476L91.4491 384.606L92.8719 388.515L90.8422 389.254L89.4194 385.345L83.7812 387.397L82.8509 384.841L88.4891 382.789L86.519 377.376L88.5488 376.637L90.5188 382.05L104.126 377.098C106.23 376.332 106.955 375.046 106.298 373.242C105.878 372.089 105.273 371.089 104.482 370.242Z" fill="white"/>
<path id="DATABASE" d="M308.735 553V527.24H319.175C322.988 527.24 325.815 528.253 327.655 530.28C329.495 532.28 330.415 535.613 330.415 540.28C330.415 544.68 329.508 547.907 327.695 549.96C325.882 551.987 323.042 553 319.175 553H308.735ZM313.095 549.64H318.495C320.175 549.64 321.575 549.4 322.695 548.92C323.815 548.413 324.655 547.48 325.215 546.12C325.775 544.76 326.055 542.813 326.055 540.28C326.055 537.747 325.802 535.787 325.295 534.4C324.788 533.013 323.975 532.04 322.855 531.48C321.762 530.92 320.308 530.64 318.495 530.64H313.095V549.64ZM331.764 553L341.604 527.24H346.484L356.244 553H351.764L349.204 546.36H338.844L336.284 553H331.764ZM339.524 543H348.484L344.004 531.2L339.524 543ZM363.813 553V530.64H355.573V527.24H376.373V530.64H368.173V553H363.813ZM375.709 553L385.549 527.24H390.429L400.189 553H395.709L393.149 546.36H382.789L380.229 553H375.709ZM383.469 543H392.429L387.949 531.2L383.469 543ZM404.477 553V527.24H416.957C419.517 527.24 421.41 527.84 422.637 529.04C423.864 530.24 424.477 531.933 424.477 534.12C424.477 535.507 424.197 536.68 423.637 537.64C423.077 538.573 422.33 539.28 421.397 539.76C422.65 540.107 423.637 540.733 424.357 541.64C425.104 542.52 425.477 543.827 425.477 545.56C425.477 548.067 424.797 549.933 423.437 551.16C422.104 552.387 420.13 553 417.517 553H404.477ZM408.837 538.24H416.357C417.824 538.24 418.864 537.907 419.477 537.24C420.117 536.547 420.437 535.627 420.437 534.48C420.437 533.147 420.117 532.16 419.477 531.52C418.837 530.853 417.637 530.52 415.877 530.52H408.837V538.24ZM408.837 549.8H416.597C418.144 549.8 419.277 549.48 419.997 548.84C420.717 548.173 421.077 547.027 421.077 545.4C421.077 544.067 420.717 543.08 419.997 542.44C419.304 541.773 418.024 541.44 416.157 541.44H408.837V549.8ZM427.545 553L437.385 527.24H442.265L452.025 553H447.545L444.985 546.36H434.625L432.065 553H427.545ZM435.305 543H444.265L439.785 531.2L435.305 543ZM461.925 553.4C458.592 553.4 455.912 552.973 453.885 552.12V548.28C455.032 548.707 456.259 549.053 457.565 549.32C458.899 549.587 460.219 549.72 461.525 549.72C463.579 549.72 465.112 549.48 466.125 549C467.165 548.52 467.685 547.56 467.685 546.12C467.685 545.24 467.472 544.533 467.045 544C466.619 543.467 465.912 543.013 464.925 542.64C463.939 542.24 462.579 541.827 460.845 541.4C458.072 540.68 456.125 539.773 455.005 538.68C453.885 537.56 453.325 536.027 453.325 534.08C453.325 531.813 454.152 530.04 455.805 528.76C457.459 527.48 459.925 526.84 463.205 526.84C464.699 526.84 466.099 526.947 467.405 527.16C468.739 527.373 469.779 527.613 470.525 527.88V531.72C468.499 530.947 466.259 530.56 463.805 530.56C461.885 530.56 460.392 530.813 459.325 531.32C458.259 531.827 457.725 532.747 457.725 534.08C457.725 534.853 457.912 535.48 458.285 535.96C458.659 536.44 459.299 536.853 460.205 537.2C461.139 537.547 462.419 537.933 464.045 538.36C466.152 538.893 467.779 539.533 468.925 540.28C470.099 541 470.912 541.853 471.365 542.84C471.845 543.8 472.085 544.893 472.085 546.12C472.085 548.387 471.245 550.173 469.565 551.48C467.885 552.76 465.339 553.4 461.925 553.4ZM476.313 553V527.24H494.273V530.64H480.673V538.44H492.793V541.8H480.673V549.64H494.273V553H476.313Z" fill="#4D4D4D"/>
</g>
</g>
<defs>
<linearGradient id="paint0_linear_0_1" x1="290" y1="233.5" x2="180.5" y2="71.5" gradientUnits="userSpaceOnUse">
<stop stop-color="#56C7EA"/>
<stop offset="1" stop-color="#1088AD"/>
</linearGradient>
<linearGradient id="paint1_linear_0_1" x1="209" y1="464" x2="28.5" y2="523.5" gradientUnits="userSpaceOnUse">
<stop stop-color="#56C7EA"/>
<stop offset="1" stop-color="#1088AD"/>
</linearGradient>
<linearGradient id="paint2_linear_0_1" x1="401" y1="603.5" x2="401" y2="800" gradientUnits="userSpaceOnUse">
<stop stop-color="#56C7EA"/>
<stop offset="1" stop-color="#1088AD"/>
</linearGradient>
<linearGradient id="paint3_linear_0_1" x1="590" y1="465.5" x2="772" y2="539" gradientUnits="userSpaceOnUse">
<stop stop-color="#56C7EA"/>
<stop offset="1" stop-color="#1088AD"/>
</linearGradient>
<linearGradient id="paint4_linear_0_1" x1="515" y1="234" x2="642.5" y2="89.5" gradientUnits="userSpaceOnUse">
<stop stop-color="#56C7EA"/>
<stop offset="1" stop-color="#1088AD"/>
</linearGradient>
</defs>
</svg>
