<?xml version="1.0" encoding="UTF-8" standalone="no"?>
<!-- Created with Inkscape (http://www.inkscape.org/) -->

<svg
   width="59.876328mm"
   height="56.416462mm"
   viewBox="0 0 59.876327 56.416462"
   version="1.1"
   id="svg1056"
   inkscape:version="1.1 (c68e22c387, 2021-05-23)"
   sodipodi:docname="profile_icon_inter.svg"
   xmlns:inkscape="http://www.inkscape.org/namespaces/inkscape"
   xmlns:sodipodi="http://sodipodi.sourceforge.net/DTD/sodipodi-0.dtd"
   xmlns="http://www.w3.org/2000/svg"
   xmlns:svg="http://www.w3.org/2000/svg">
  <sodipodi:namedview
     id="namedview1058"
     pagecolor="#ffffff"
     bordercolor="#666666"
     borderopacity="1.0"
     inkscape:pageshadow="2"
     inkscape:pageopacity="0.0"
     inkscape:pagecheckerboard="0"
     inkscape:document-units="mm"
     showgrid="false"
     inkscape:zoom="3.1108586"
     inkscape:cx="112.83059"
     inkscape:cy="157.99497"
     inkscape:window-width="2560"
     inkscape:window-height="1361"
     inkscape:window-x="-9"
     inkscape:window-y="-9"
     inkscape:window-maximized="1"
     inkscape:current-layer="layer1" />
  <defs
     id="defs1053" />
  <g
     inkscape:label="Calque 1"
     inkscape:groupmode="layer"
     id="layer1"
     transform="translate(-3.1141319,-1.7732594)">
    <path
       style="color:#000000;clip-rule:nonzero;display:inline;overflow:visible;visibility:visible;isolation:auto;mix-blend-mode:normal;color-interpolation:sRGB;color-interpolation-filters:linearRGB;solid-color:#000000;solid-opacity:1;fill:#ce005c;fill-opacity:1;fill-rule:nonzero;stroke:#000e26;stroke-width:0.347133;stroke-linecap:round;stroke-linejoin:round;stroke-miterlimit:4;stroke-dasharray:none;stroke-dashoffset:0;stroke-opacity:1;color-rendering:auto;image-rendering:auto;shape-rendering:auto;text-rendering:auto;enable-background:accumulate"
       d="m 39.618743,1.948479 a 7.8620817,7.4131241 0 0 0 -1.565034,0.116656 7.8620817,7.4131241 0 0 0 -6.406269,8.177239 7.8620817,7.4131241 0 0 0 1.321794,3.295499 H 15.64489 v 16.431318 a 7.8620817,7.4131241 0 0 0 -5.8943704,-1.217068 7.8620817,7.4131241 0 0 0 -6.406302,8.177205 7.8620817,7.4131241 0 0 0 8.2750714,6.517407 7.8620817,7.4131241 0 0 0 4.025601,-1.328283 v 15.897701 h 17.324344 a 7.8620817,7.4131241 0 0 1 -1.321794,-3.295501 7.8620817,7.4131241 0 0 1 6.406269,-8.177237 7.8620817,7.4131241 0 0 1 9.039161,5.542156 l 0.222679,1.75246 a 7.8620817,7.4131241 0 0 1 -1.368182,4.178122 H 62.816893 V 42.118452 a 7.8620817,7.4131241 0 0 1 -4.025601,1.328283 7.8620817,7.4131241 0 0 1 -8.275071,-6.517407 7.8620817,7.4131241 0 0 1 6.406301,-8.177205 7.8620817,7.4131241 0 0 1 5.894371,1.217068 V 13.537873 H 45.947367 A 7.8620817,7.4131241 0 0 0 47.315549,9.35975 L 47.09287,7.607291 A 7.8620817,7.4131241 0 0 0 39.618743,1.948479 Z"
       id="path2502" />
  </g>
</svg>
